<svg width="40" height="32" viewBox="0 0 40 32" fill="none" xmlns="http://www.w3.org/2000/svg">
<path d="M12.9155 1.65234H34.6333C36.1153 1.65234 37.3168 2.85376 37.3168 4.33588V25.2103H2.39453V4.33588C2.39453 2.85384 3.59595 1.65234 5.07806 1.65234H10.1651" stroke="#34A853" stroke-width="0.869565" stroke-miterlimit="10" stroke-linecap="round" stroke-linejoin="round"/>
<path d="M4.81055 25.2111V5.56132C4.81055 4.73679 5.47899 4.06836 6.30351 4.06836H33.4065C34.231 4.06836 34.8995 4.73679 34.8995 5.56132V25.2111" stroke="#34A853" stroke-width="0.869565" stroke-miterlimit="10" stroke-linecap="round" stroke-linejoin="round"/>
<path d="M27.1885 16.7871H34.9003" stroke="#34A853" stroke-width="0.869565" stroke-miterlimit="10" stroke-linecap="round" stroke-linejoin="round"/>
<path d="M13.2793 25.2113V18.5499C13.2793 17.5763 14.0686 16.7871 15.0422 16.7871H24.4379" stroke="#34A853" stroke-width="0.869565" stroke-miterlimit="10" stroke-linecap="round" stroke-linejoin="round"/>
<path d="M37.0333 30.2015H2.67665C1.67839 30.2015 0.869141 29.3922 0.869141 28.3939V25.8003C0.869141 25.4748 1.13304 25.2109 1.45851 25.2109H38.2515C38.577 25.2109 38.8409 25.4748 38.8409 25.8003V28.3939C38.8409 29.3921 38.0316 30.2015 37.0333 30.2015Z" stroke="#34A853" stroke-width="0.869565" stroke-miterlimit="10" stroke-linecap="round" stroke-linejoin="round"/>
<path d="M23.6432 27.7062H16.0683C15.6293 27.7062 15.2734 27.3503 15.2734 26.9113V25.2109H24.438V26.9113C24.438 27.3503 24.0821 27.7062 23.6432 27.7062Z" stroke="#34A853" stroke-width="0.869565" stroke-miterlimit="10" stroke-linecap="round" stroke-linejoin="round"/>
<path d="M15.9648 22.8463L17.3226 19.2814C17.3503 19.2136 17.4463 19.2135 17.4742 19.2812L18.8196 22.8463" stroke="#34A853" stroke-width="0.869565" stroke-miterlimit="10" stroke-linecap="round" stroke-linejoin="round"/>
<path d="M16.3887 21.959H18.4034" stroke="#34A853" stroke-width="0.869565" stroke-miterlimit="10" stroke-linecap="round" stroke-linejoin="round"/>
<path d="M28.2793 19.2305V22.8433C28.3193 22.8501 29.5455 22.8433 29.5455 22.8433" stroke="#34A853" stroke-width="0.869565" stroke-miterlimit="10" stroke-linecap="round" stroke-linejoin="round"/>
<path d="M30.3193 19.2305L31.4743 20.9993L32.6198 19.2397" stroke="#34A853" stroke-width="0.869565" stroke-miterlimit="10" stroke-linecap="round" stroke-linejoin="round"/>
<path d="M31.4697 22.847L31.4742 21" stroke="#34A853" stroke-width="0.869565" stroke-miterlimit="10" stroke-linecap="round" stroke-linejoin="round"/>
<path d="M20.6484 19.2305V22.8462" stroke="#34A853" stroke-width="0.869565" stroke-miterlimit="10" stroke-linecap="round" stroke-linejoin="round"/>
<path d="M22.6957 20.2508C22.6957 20.8144 22.2188 21.2712 21.6552 21.2712C21.3757 21.2712 20.6555 21.2757 20.6555 21.2757C20.6555 21.2757 20.651 20.5349 20.651 20.2508C20.651 20.0175 20.6484 19.2305 20.6484 19.2305C20.6484 19.2305 21.325 19.2305 21.6552 19.2305C22.2188 19.2305 22.6957 19.6873 22.6957 20.2508Z" stroke="#34A853" stroke-width="0.869565" stroke-miterlimit="10" stroke-linecap="round" stroke-linejoin="round"/>
<path d="M24.3623 19.2305V22.8462" stroke="#34A853" stroke-width="0.869565" stroke-miterlimit="10" stroke-linecap="round" stroke-linejoin="round"/>
<path d="M26.4095 20.2508C26.4095 20.8144 25.9327 21.2712 25.3692 21.2712C25.0897 21.2712 24.3693 21.2757 24.3693 21.2757C24.3693 21.2757 24.3648 20.5349 24.3648 20.2508C24.3648 20.0175 24.3623 19.2305 24.3623 19.2305C24.3623 19.2305 25.0388 19.2305 25.3692 19.2305C25.9327 19.2305 26.4095 19.6873 26.4095 20.2508Z" stroke="#34A853" stroke-width="0.869565" stroke-miterlimit="10" stroke-linecap="round" stroke-linejoin="round"/>
<path d="M7.68848 9.52322C7.68848 9.52322 8.09684 9.93409 8.5415 9.68722C8.76093 9.56539 8.89336 9.33042 8.89336 9.07943V6.3457" stroke="#34A853" stroke-width="0.869565" stroke-miterlimit="10" stroke-linecap="round" stroke-linejoin="round"/>
<path d="M18.4543 7.13467C18.4543 7.56933 18.102 7.92169 17.6673 7.92169C17.4517 7.92169 16.6738 7.9252 16.6738 7.9252C16.6738 7.9252 16.6738 7.3538 16.6738 7.13467C16.6738 6.95475 16.6738 6.34766 16.6738 6.34766C16.6738 6.34766 17.4126 6.34766 17.6673 6.34766C18.102 6.34759 18.4543 6.69994 18.4543 7.13467Z" stroke="#34A853" stroke-width="0.869565" stroke-miterlimit="10" stroke-linecap="round" stroke-linejoin="round"/>
<path d="M18.7616 8.84259C18.7616 9.35105 18.3494 9.76324 17.8409 9.76324C17.5887 9.76324 16.6738 9.76724 16.6738 9.76724C16.6738 9.76724 16.6738 9.09884 16.6738 8.84252C16.6738 8.63203 16.6738 7.92188 16.6738 7.92188C16.6738 7.92188 17.5429 7.92188 17.8409 7.92188C18.3494 7.92188 18.7616 8.33406 18.7616 8.84259Z" stroke="#34A853" stroke-width="0.869565" stroke-miterlimit="10" stroke-linecap="round" stroke-linejoin="round"/>
<path d="M12.7747 9.76617C13.7192 9.76617 14.485 9.0005 14.485 8.05596C14.485 7.11141 13.7192 6.3457 12.7747 6.3457C11.8301 6.3457 11.0645 7.11141 11.0645 8.05596C11.0645 9.0005 11.8301 9.76617 12.7747 9.76617Z" stroke="#34A853" stroke-width="0.869565" stroke-miterlimit="10" stroke-linecap="round" stroke-linejoin="round"/>
<path d="M21.332 7.01367H32.4046" stroke="#34A853" stroke-width="0.869565" stroke-miterlimit="10" stroke-linecap="round" stroke-linejoin="round"/>
<path d="M21.332 9.28906H32.4046" stroke="#34A853" stroke-width="0.869565" stroke-miterlimit="10" stroke-linecap="round" stroke-linejoin="round"/>
<path d="M7.75586 13.1055H32.404" stroke="#34A853" stroke-width="0.869565" stroke-miterlimit="10" stroke-linecap="round" stroke-linejoin="round"/>
<path d="M7.75586 18.0215H10.9085" stroke="#34A853" stroke-width="0.869565" stroke-miterlimit="10" stroke-linecap="round" stroke-linejoin="round"/>
<path d="M7.75586 22.5723H10.9085" stroke="#34A853" stroke-width="0.869565" stroke-miterlimit="10" stroke-linecap="round" stroke-linejoin="round"/>
</svg>
