<svg width="40" height="40" viewBox="0 0 40 40" fill="none" xmlns="http://www.w3.org/2000/svg">
<g clip-path="url(#clip0_2_2896)">
<mask id="mask0_2_2896" style="mask-type:luminance" maskUnits="userSpaceOnUse" x="0" y="0" width="40" height="40">
<path d="M40 0H0V40H40V0Z" fill="white"/>
</mask>
<g mask="url(#mask0_2_2896)">
<path d="M32.3447 11.6211C32.7762 11.6211 33.126 11.2713 33.126 10.8398V2.34375C33.126 1.05141 32.0746 0 30.7822 0H2.34472C1.05238 0 0.000976562 1.05141 0.000976562 2.34375V37.6562C0.000976562 38.9486 1.05238 40 2.34472 40H30.7822C32.0746 40 33.126 38.9486 33.126 37.6562V31.9006C33.126 31.4691 32.7762 31.1194 32.3447 31.1194C31.9133 31.1194 31.5635 31.4691 31.5635 31.9006V37.6562C31.5635 38.087 31.213 38.4375 30.7822 38.4375H2.34472C1.91394 38.4375 1.56347 38.087 1.56347 37.6562V2.34375C1.56347 1.91297 1.91394 1.5625 2.34472 1.5625H30.7822C31.213 1.5625 31.5635 1.91297 31.5635 2.34375V10.8398C31.5635 11.2713 31.9133 11.6211 32.3447 11.6211Z" fill="#34A853"/>
<path d="M16.5634 4.21875C12.6002 4.21875 9.37598 7.44305 9.37598 11.4062C9.37598 13.4623 10.2439 15.3191 11.6324 16.6304C11.6584 16.6582 11.686 16.6845 11.7163 16.7085C12.9952 17.8787 14.6974 18.5937 16.5634 18.5937C18.4294 18.5937 20.1315 17.8787 21.4105 16.7085C21.4407 16.6845 21.4684 16.6581 21.4944 16.6304C22.883 15.3191 23.7509 13.4623 23.7509 11.4062C23.7509 7.44305 20.5266 4.21875 16.5634 4.21875ZM16.5634 17.0312C15.2877 17.0312 14.1104 16.6038 13.1657 15.8853C13.8524 14.6677 15.1337 13.9062 16.5634 13.9062C17.9932 13.9062 19.2745 14.6677 19.9612 15.8853C19.0164 16.6038 17.8391 17.0312 16.5634 17.0312ZM15.3134 11.0938V10.5859C15.3134 9.89672 15.8742 9.33594 16.5634 9.33594C17.2527 9.33594 17.8134 9.89672 17.8134 10.5859V11.0938C17.8134 11.783 17.2527 12.3438 16.5634 12.3438C15.8742 12.3438 15.3134 11.783 15.3134 11.0938ZM21.09 14.7409C20.5138 13.8863 19.7153 13.2217 18.7882 12.8114C19.1562 12.3359 19.3759 11.7402 19.3759 11.0938V10.5859C19.3759 9.03508 18.1143 7.77344 16.5634 7.77344C15.0126 7.77344 13.7509 9.03508 13.7509 10.5859V11.0938C13.7509 11.7402 13.9707 12.3359 14.3387 12.8114C13.4116 13.2217 12.6131 13.8863 12.0369 14.7409C11.3471 13.807 10.9384 12.6537 10.9384 11.4062C10.9384 8.30461 13.4618 5.78125 16.5634 5.78125C19.6651 5.78125 22.1884 8.30461 22.1884 11.4062C22.1884 12.6537 21.7798 13.807 21.09 14.7409Z" fill="#34A853"/>
<path d="M20.7822 34.2188H16.5634C16.132 34.2188 15.7822 34.5685 15.7822 35C15.7822 35.4315 16.132 35.7812 16.5634 35.7812H20.7822C21.2136 35.7812 21.5634 35.4315 21.5634 35C21.5634 34.5685 21.2136 34.2188 20.7822 34.2188Z" fill="#34A853"/>
<path d="M20.7822 29.8438H9.68848C9.25707 29.8438 8.90723 30.1935 8.90723 30.625C8.90723 31.0565 9.25707 31.4062 9.68848 31.4062H20.7822C21.2136 31.4062 21.5634 31.0565 21.5634 30.625C21.5634 30.1935 21.2136 29.8438 20.7822 29.8438Z" fill="#34A853"/>
<path d="M20.7822 25.4688H9.68848C9.25707 25.4688 8.90723 25.8185 8.90723 26.25C8.90723 26.6815 9.25707 27.0312 9.68848 27.0312H20.7822C21.2136 27.0312 21.5634 26.6815 21.5634 26.25C21.5634 25.8185 21.2136 25.4688 20.7822 25.4688Z" fill="#34A853"/>
<path d="M6.90363 21.3227C6.7584 21.1773 6.55684 21.0938 6.35059 21.0938C6.14504 21.0938 5.94348 21.1773 5.79824 21.3227C5.65293 21.468 5.56934 21.6695 5.56934 21.875C5.56934 22.0805 5.65285 22.2819 5.79824 22.4272C5.94434 22.5726 6.14504 22.6562 6.35059 22.6562C6.55684 22.6562 6.75762 22.5726 6.90363 22.4272C7.04895 22.2819 7.13262 22.0805 7.13262 21.875C7.13262 21.6695 7.04902 21.468 6.90363 21.3227Z" fill="#34A853"/>
<path d="M6.90363 25.6977C6.75762 25.5523 6.55684 25.4688 6.35059 25.4688C6.14504 25.4688 5.94434 25.5523 5.79824 25.6977C5.65293 25.843 5.56934 26.0445 5.56934 26.25C5.56934 26.4555 5.65285 26.6569 5.79824 26.8022C5.94434 26.9476 6.14504 27.0312 6.35059 27.0312C6.55684 27.0312 6.75762 26.9476 6.90363 26.8022C7.04895 26.6569 7.13262 26.4555 7.13262 26.25C7.13262 26.0445 7.04902 25.843 6.90363 25.6977Z" fill="#34A853"/>
<path d="M6.90363 30.0727C6.75762 29.9273 6.55684 29.8438 6.35059 29.8438C6.14504 29.8438 5.94434 29.9273 5.79824 30.0727C5.65293 30.218 5.56934 30.4195 5.56934 30.625C5.56934 30.8305 5.65285 31.0319 5.79824 31.1772C5.94348 31.3226 6.14504 31.4062 6.35059 31.4062C6.55684 31.4062 6.7584 31.3226 6.90363 31.1772C7.04895 31.0319 7.13262 30.8305 7.13262 30.625C7.13262 30.4195 7.04902 30.218 6.90363 30.0727Z" fill="#34A853"/>
<path d="M20.7822 21.0938H9.68848C9.25707 21.0938 8.90723 21.4435 8.90723 21.875C8.90723 22.3065 9.25707 22.6562 9.68848 22.6562H20.7822C21.2136 22.6562 21.5634 22.3065 21.5634 21.875C21.5634 21.4435 21.2136 21.0938 20.7822 21.0938Z" fill="#34A853"/>
<path d="M38.3603 10.1812C37.6013 9.74303 36.7171 9.62663 35.8704 9.85342C35.0238 10.0803 34.3162 10.6233 33.8781 11.3823L24.0467 28.4106C23.9928 28.504 23.9588 28.6075 23.9468 28.7146L23.2548 34.9133C23.2204 35.2218 23.3718 35.5214 23.6406 35.6766C23.7619 35.7466 23.8967 35.7813 24.0311 35.7813C24.1946 35.7813 24.3574 35.7301 24.4945 35.6291L29.5167 31.9304C29.6035 31.8665 29.6761 31.7853 29.7299 31.6919L39.5613 14.6636C40.466 13.0967 39.9272 11.0859 38.3603 10.1812ZM25.0057 33.312L25.3671 30.0751L27.6282 31.3806L25.0057 33.312ZM28.7674 30.2341L25.7905 28.5153L33.6799 14.8505L36.6569 16.5692L28.7674 30.2341ZM38.2081 13.8823L37.4381 15.2161L34.4611 13.4973L35.2312 12.1635C35.4607 11.7659 35.8313 11.4815 36.2748 11.3627C36.7184 11.2438 37.1815 11.3049 37.579 11.5344C37.9766 11.764 38.261 12.1346 38.3798 12.578C38.4986 13.0215 38.4377 13.4847 38.2081 13.8823Z" fill="#34A853"/>
</g>
</g>
<defs>
<clipPath id="clip0_2_2896">
<rect width="40" height="40" fill="white"/>
</clipPath>
</defs>
</svg>
