<svg width="118" height="36" viewBox="0 0 118 36" fill="none" xmlns="http://www.w3.org/2000/svg">
<g clip-path="url(#clip0_337_1720)">
<g clip-path="url(#clip1_337_1720)">
<mask id="mask0_337_1720" style="mask-type:luminance" maskUnits="userSpaceOnUse" x="0" y="0" width="118" height="36">
<path d="M117.84 0.910156H0.839844V35.9102H117.84V0.910156Z" fill="white"/>
</mask>
<g mask="url(#mask0_337_1720)">
<path d="M42.4108 14.6412C42.4108 11.1662 44.9483 8.7397 49.5597 8.7397C52.3735 8.7397 54.6759 9.63671 55.9232 10.5154C56.1017 10.6409 56.4202 10.9453 56.2293 11.5114C55.9845 12.1212 55.5357 13.0381 55.2137 13.6338C55.0263 13.9808 54.5476 13.9351 54.3024 13.8111C53.4139 13.3615 51.9566 12.601 50.6178 12.4607C50.2788 12.4239 49.9378 12.4092 49.5968 12.4166C48.4178 12.4429 47.4328 12.8517 47.0859 13.7498C47.0179 13.9198 46.98 14.1002 46.9738 14.2831C46.9414 15.4667 48.5911 15.8947 50.5896 16.2375C54.305 16.8731 57.1159 17.9607 57.1159 21.7791C57.1159 25.0216 54.5349 27.9521 49.478 27.8623C46.1443 27.795 43.7792 26.6703 42.5118 25.5788C42.4686 25.5418 41.9862 25.0512 42.2448 24.4612C42.5407 23.7016 43.0403 22.8311 43.4323 22.3689C43.6502 22.072 44.2254 22.0248 44.5244 22.2099C45.5691 22.858 47.2883 23.8974 49.2701 23.9663C49.4266 23.9717 49.5816 23.9727 49.7338 23.9687C51.5164 23.9255 52.5949 23.2506 52.5724 22.1137C52.5531 21.1121 51.1397 20.527 48.8889 20.1035C45.2992 19.4283 42.4108 18.2468 42.4108 14.6412ZM75.0229 19.5892C72.4915 19.6222 70.1706 20.3131 70.1036 22.2884C70.1029 23.8559 71.3764 24.6258 73.1637 24.5249C74.8783 24.3601 76.1858 23.6176 76.7619 22.6324C76.9749 22.2673 77.0073 20.901 76.9944 20.3171C76.9911 20.1928 76.745 19.9576 76.6372 19.9123C76.0993 19.686 75.7014 19.6167 75.0229 19.5892ZM66.5999 11.6299C67.7836 10.5722 70.1306 8.9259 73.8712 9.01267C78.8074 9.11515 81.4151 11.4258 81.658 16.9533C81.758 19.2327 81.5922 25.5908 81.5528 27.1749C81.5469 27.4022 81.4698 27.5593 81.1631 27.5652C80.3502 27.5978 78.4722 27.5849 77.6093 27.5736C77.1739 27.5525 77.1234 27.3367 77.1177 27.1109C77.114 26.9632 77.1013 26.5251 77.0921 26.1679C77.0872 25.9785 76.9089 25.9838 76.8634 26.0324C75.7055 27.2669 73.8092 27.863 71.7926 27.863C68.7275 27.863 65.6719 26.0626 65.6813 22.4974C65.6907 18.846 68.2836 17.045 71.1321 16.6203C72.9561 16.3492 75.0121 16.5902 76.5691 17.208C76.6687 17.2478 76.8721 17.1901 76.8737 17.0492C76.8801 16.5839 76.8575 15.6972 76.768 15.277C76.5395 14.2062 75.6449 13.3446 73.7655 13.1124C73.3784 13.0648 72.9888 13.0491 72.5986 13.0801C71.1046 13.1973 69.3067 14.3605 68.5622 14.796C68.387 14.8982 68.1127 14.8234 68.0239 14.7092C67.5894 14.1487 66.4972 12.5095 66.4113 12.2476C66.3253 11.9863 66.4465 11.7663 66.5994 11.6289L66.5999 11.6299ZM83.2856 18.4269C83.2562 13.3345 86.8098 9.03847 92.58 9.00071C96.1806 8.97726 98.7963 10.6071 99.2576 11.3759C99.3513 11.5565 99.3031 11.7072 99.2383 11.889C98.9335 12.5316 98.1636 13.7731 97.6149 14.4766C97.3812 14.7763 97.1276 14.5195 96.8328 14.3237C96.0147 13.7796 94.4604 13.1143 92.9307 13.1143C90.1555 13.1148 88.0889 15.0148 88.1119 18.5104C88.1335 21.8649 90.113 23.7084 92.9403 23.7752C94.4183 23.8123 95.8503 22.964 96.6207 22.2692C96.8626 22.0584 97.113 22.1639 97.3894 22.3796C97.932 22.9333 98.7101 23.7881 99.1416 24.3765C99.4241 24.7034 99.2127 25.0233 99.111 25.1518C97.9404 26.6309 95.6796 27.8757 92.6876 27.8925C86.4227 27.9364 83.3145 23.5374 83.2856 18.4269ZM113.19 27.663C113.484 27.6409 116.622 27.2085 117.586 26.9883C117.825 26.9339 117.91 26.7331 117.776 26.5342C117.238 25.7289 115.824 23.442 114.343 21.3947C112.981 19.5123 111.545 17.8566 111.081 17.2197C110.967 17.0649 110.974 16.9125 111.097 16.7924C111.98 15.9294 115.675 12.3121 117.064 10.8182C117.602 10.2371 117.279 9.98707 116.822 9.85128C115.94 9.58863 114.513 9.26125 113.701 9.09029C113.359 9.01807 112.947 9.04339 112.647 9.3506C111.258 10.6439 107.019 14.8922 105.754 16.162C105.526 16.3911 105.393 16.3403 105.392 16.0129C105.382 13.5646 105.333 3.08234 105.246 1.35821C105.24 1.13026 104.965 0.957193 104.81 0.948986C104.015 0.907477 102.004 0.895517 101.212 0.94195C100.99 0.967043 100.779 1.19288 100.759 1.38377C100.577 4.14069 100.837 24.3786 100.945 27.2096C100.953 27.4144 101.105 27.5731 101.3 27.5846C102.09 27.6303 104.045 27.6273 104.958 27.6102C105.407 27.6102 105.462 27.295 105.462 27.295L105.53 21.8644C105.53 21.8644 105.576 21.6229 105.651 21.5431C105.973 21.1972 106.863 20.2446 107.242 19.8765C107.333 19.788 107.477 19.7944 107.57 19.9194C108.021 20.5268 109.307 22.5013 110.499 24.2649C111.594 25.8849 112.616 27.3227 112.688 27.4242C112.853 27.6587 113.045 27.6674 113.19 27.663ZM59.8209 27.6442C60.0969 27.6533 62.1907 27.651 63.1184 27.6498C63.4308 27.6559 63.5931 27.4198 63.6034 27.2113C63.8005 23.2419 63.7162 4.34354 63.5917 1.35938C63.5814 1.10142 63.4707 1.00457 63.2943 0.981114C62.4981 0.874646 60.2354 0.899504 59.5101 1.08899C59.3683 1.12581 59.2847 1.23345 59.2802 1.37181C59.1027 9.06379 59.2224 26.7976 59.26 27.1334C59.2974 27.4697 59.4731 27.6325 59.8209 27.6442Z" fill="#443642"/>
<path d="M3.78343 19.7511C2.49307 19.7609 1.4 18.9931 0.996963 17.7948C0.982012 17.7495 0.968073 17.7039 0.955157 17.6581C0.515954 16.1234 1.36758 14.518 2.89399 14.0039L27.3766 5.81408C27.6673 5.73011 27.9681 5.68624 28.2707 5.68369C29.5954 5.67337 30.7185 6.45805 31.1314 7.68173L31.1681 7.79992C31.6261 9.39835 30.4881 10.8251 29.1247 11.2824C29.1247 11.2824 28.8758 11.3668 4.77787 19.582C4.45756 19.691 4.12183 19.7481 3.78343 19.7511Z" fill="#70CADB"/>
<path d="M7.8642 31.774C6.56373 31.7834 5.4669 31.0264 5.06856 29.8452C5.05344 29.8002 5.03935 29.755 5.02629 29.7094C4.58098 28.1564 5.43167 26.5341 6.96324 26.0193L31.4468 17.7544C31.7631 17.6489 32.0899 17.595 32.4184 17.5919C33.7224 17.5821 34.8681 18.3775 35.2723 19.5721L35.3099 19.6964C35.5464 20.5222 35.4067 21.4501 34.9366 22.1825C34.5861 22.727 33.4807 23.2064 33.4807 23.2064L8.90419 31.597C8.569 31.7103 8.21804 31.7697 7.8642 31.774Z" fill="#E01765"/>
<path d="M28.2452 31.8261C27.6106 31.8321 26.9904 31.6375 26.4733 31.27C25.9563 30.9026 25.569 30.3811 25.3669 29.7804L17.1959 5.54599L17.155 5.40997C16.7123 3.86454 17.5637 2.25251 19.0896 1.73893C19.395 1.63644 19.7106 1.58298 20.0284 1.58016C20.5005 1.57664 20.9573 1.68288 21.3876 1.89511C21.742 2.07012 22.0583 2.31337 22.3182 2.61088C22.5782 2.90838 22.7766 3.25426 22.9022 3.62862L31.0726 27.8609L31.0963 27.9388C31.5552 29.5433 30.7057 31.1563 29.1798 31.6699C28.8784 31.7704 28.563 31.8231 28.2452 31.8261Z" fill="#E8A723"/>
<path d="M16.0993 35.9078C15.4643 35.9138 14.8437 35.719 14.3265 35.3512C13.8092 34.9835 13.4218 34.4616 13.2198 33.8605L5.05087 9.62699C4.92429 9.25313 4.87281 8.85801 4.89937 8.46425C4.92593 8.0705 5.03001 7.68584 5.20565 7.3323C5.3813 6.97876 5.62505 6.66329 5.92296 6.40393C6.22087 6.14458 6.56709 5.94644 6.94179 5.82086C7.24365 5.72011 7.55947 5.66725 7.87774 5.66421C8.51245 5.65795 9.13286 5.85251 9.65001 6.22C10.1672 6.58749 10.5545 7.10903 10.7565 7.70986L18.9257 31.9443C19.0523 32.3184 19.1038 32.7137 19.0772 33.1076C19.0505 33.5015 18.9463 33.8864 18.7704 34.24C18.5946 34.5936 18.3505 34.9092 18.0524 35.1685C17.7542 35.4278 17.4076 35.6258 17.0327 35.7511C16.7314 35.8519 16.417 35.9049 16.0993 35.9078Z" fill="#3EB890"/>
<path d="M24.2167 26.3682L29.9142 24.4232L28.0517 18.9004L22.3477 20.8251L24.2167 26.3682Z" fill="#CC2027"/>
<path d="M12.0903 30.5097L17.7872 28.5649L15.9106 23L10.208 24.9253L12.0903 30.5097Z" fill="#361238"/>
<path d="M20.1609 14.3382L25.8588 12.3958L24.0181 6.9375L18.3096 8.84713L20.1609 14.3382Z" fill="#65863A"/>
<path d="M8.03197 18.4742L13.7299 16.5318L11.8667 11.0039L6.1582 12.9133L8.03197 18.4742Z" fill="#1A937D"/>
</g>
</g>
</g>
<defs>
<clipPath id="clip0_337_1720">
<rect width="117" height="35" fill="white" transform="translate(0.839844 0.910156)"/>
</clipPath>
<clipPath id="clip1_337_1720">
<rect width="117" height="35" fill="white" transform="translate(0.839844 0.910156)"/>
</clipPath>
</defs>
</svg>
