<svg width="119" height="36" viewBox="0 0 119 36" fill="none" xmlns="http://www.w3.org/2000/svg">
<g clip-path="url(#clip0_337_1774)">
<g clip-path="url(#clip1_337_1774)">
<mask id="mask0_337_1774" style="mask-type:luminance" maskUnits="userSpaceOnUse" x="0" y="0" width="119" height="36">
<path d="M118.77 0.910156H0.769531V35.9102H118.77V0.910156Z" fill="white"/>
</mask>
<g mask="url(#mask0_337_1774)">
<path d="M33.0618 23.0148C31.1442 23.0148 29.3474 22.2089 27.7149 20.897L28.1125 19.0449L28.1297 18.9763C28.4837 17.0044 29.6067 13.6945 33.0618 13.6945C35.6529 13.6945 37.7606 15.7867 37.7606 18.3589C37.7518 20.9226 35.6444 23.0148 33.0618 23.0148ZM33.0618 8.97021C28.6478 8.97021 25.2275 11.8169 23.837 16.4984C21.712 13.3345 20.1054 9.53616 19.164 6.33789H14.4133V18.6076C14.4133 21.0255 12.4266 22.9974 9.99084 22.9974C7.55501 22.9974 5.56856 21.0255 5.56856 18.6076V6.33789H0.817437V18.6076C0.800153 23.6322 4.92031 27.7563 9.98185 27.7563C15.0436 27.7563 19.1637 23.6322 19.1637 18.6076V16.5499C20.0878 18.4618 21.2193 20.391 22.5928 22.106L19.6818 35.6873H24.5449L26.6524 25.8356C28.5008 27.0103 30.6257 27.7478 33.0615 27.7478C38.2699 27.7478 42.511 23.5121 42.511 18.3417C42.511 13.18 38.2701 8.97021 33.0618 8.97021Z" fill="#6FDA44"/>
<path d="M57.0135 9.50247L60.0798 21.7722L63.4572 9.50247H67.4822L62.2912 27.234H58.2659L55.0789 14.887L51.9001 27.2253H47.8751L42.6836 9.49401H46.7088L50.086 21.7637L53.1523 9.49401H57.0132L57.0135 9.50247ZM77.1131 8.97084C71.8874 8.97084 67.655 13.1807 67.655 18.3595C67.655 23.5471 71.896 27.7485 77.1131 27.7485C82.3389 27.7485 86.5798 23.5471 86.5798 18.3595C86.5798 13.1722 82.3389 8.97084 77.1131 8.97084ZM77.1131 23.89C74.0382 23.89 71.5505 21.4206 71.5505 18.3682C71.5505 15.3157 74.0467 12.8465 77.1131 12.8465C80.1881 12.8465 82.6756 15.3157 82.6756 18.3682C82.6756 21.4121 80.1881 23.89 77.1131 23.89ZM98.0764 13.4724C95.373 13.4724 93.1877 15.6501 93.1877 18.3252V27.2253H89.1364V9.50247H93.1877V12.2291C93.1877 12.2291 94.9151 9.49378 98.4651 9.49378H99.7088V13.4724H98.0764ZM111.672 17.6737C114.548 16.0617 116.5 13.0007 116.5 9.49378H112.449C112.449 12.4519 110.031 14.8527 107.051 14.8527H106.507V0.945312H102.456V27.2251H106.507V18.874H106.991C107.388 18.874 107.906 19.1314 108.139 19.4484L113.892 27.2253H118.746L111.672 17.6737Z" fill="#6FDA44"/>
</g>
</g>
</g>
<defs>
<clipPath id="clip0_337_1774">
<rect width="118" height="35" fill="white" transform="translate(0.769531 0.910156)"/>
</clipPath>
<clipPath id="clip1_337_1774">
<rect width="118" height="35" fill="white" transform="translate(0.769531 0.910156)"/>
</clipPath>
</defs>
</svg>
