<svg width="161" height="35" viewBox="0 0 161 35" fill="none" xmlns="http://www.w3.org/2000/svg">
<g clip-path="url(#clip0_337_1634)">
<g clip-path="url(#clip1_337_1634)">
<mask id="mask0_337_1634" style="mask-type:luminance" maskUnits="userSpaceOnUse" x="0" y="0" width="161" height="42">
<path d="M160.197 0.0292969H0.822266V41.2793H160.197V0.0292969Z" fill="white"/>
</mask>
<g mask="url(#mask0_337_1634)">
<path d="M22.2651 21.2246C22.2651 21.2246 23.4276 23.5199 21.5714 24.2709C21.5714 24.2709 19.9441 23.9035 19.9434 22.4495L22.2651 21.2246Z" fill="#F2B000"/>
<path d="M22.2276 22.5901C22.3628 22.5901 22.4948 22.6036 22.6236 22.6282C22.6043 21.8948 22.2651 21.2246 22.2651 21.2246L19.9434 22.4498C19.9434 22.9571 20.1422 23.3323 20.4007 23.6058C20.7777 23.0007 21.4608 22.5901 22.2276 22.5901Z" fill="#E99900"/>
<path d="M10.7952 23.3242C10.7517 23.4252 10.7292 23.4802 10.7292 23.4802C9.21732 24.0076 7.96238 26.1067 7.96238 26.1067C8.97463 25.9607 9.56909 25.5467 9.56909 25.5467C7.6189 27.7846 7.93036 28.9227 7.93036 28.9227C9.03748 28.7444 10.0153 27.0531 10.0153 27.0531C9.37502 28.2117 9.55763 29.2902 9.55763 29.2902C10.473 29.2705 11.2896 27.7718 11.6734 26.9387C11.5221 27.7634 12.0209 28.744 12.0209 28.744C12.9999 28.5067 13.498 25.2169 13.498 25.2169L13.5952 25.1935C12.3838 25.2956 11.1608 24.4489 10.7952 23.3242Z" fill="#89277F"/>
<path d="M12.0908 25.4746V25.6148C12.1014 25.5928 12.1069 25.5689 12.1069 25.5446C12.1069 25.5205 12.1014 25.4965 12.0908 25.4746Z" fill="#89277F"/>
<path d="M12.0908 25.4746V25.6148C12.1014 25.5928 12.1069 25.5689 12.1069 25.5446C12.1069 25.5205 12.1014 25.4965 12.0908 25.4746Z" fill="#792672"/>
<path d="M10.9996 23.7812C10.5134 24.1053 10.0383 24.4361 9.63281 24.9025C10.0423 25.1876 10.4518 24.9591 10.8612 24.7319C10.3348 25.0169 9.80791 25.758 10.1008 26.0431C10.3933 26.4424 10.9782 25.7006 11.5051 25.4733C11.0444 25.8688 10.7522 26.4181 10.6862 27.0129C10.8032 27.0129 10.9202 27.0695 11.0372 26.9563C11.3881 26.5568 11.5056 26.0438 12.032 25.7013C12.032 25.7013 12.0692 25.6652 12.0909 25.6136V25.4733C12.1016 25.4952 12.1073 25.5192 12.1073 25.5435C12.1073 25.5677 12.1016 25.5917 12.0909 25.6136C12.0949 26.0681 12.1329 26.8638 12.5004 26.5561C12.8961 26.1998 13.0225 25.7052 13.1185 25.1837C12.2463 25.0855 11.4289 24.5316 10.9996 23.7812Z" fill="#792672"/>
<path d="M21.6815 16.4407L18.6088 13.877C14.0285 16.2312 11.2483 22.278 10.7949 23.3229C11.1605 24.4476 12.3839 25.2943 13.595 25.1918C19.1139 23.8737 21.4692 22.5395 21.4692 22.5395C24.9111 20.3009 21.6815 16.4407 21.6815 16.4407Z" fill="#AFCA0B"/>
<path d="M20.0285 19.6206C17.8052 21.7303 15.4064 24.1822 12.1883 24.2388C11.8052 24.2388 11.4471 23.9696 11.1305 23.64C11.0378 23.6023 10.9485 23.5574 10.8633 23.5055C11.2949 24.5382 12.4503 25.2896 13.5953 25.1922C19.1143 23.8742 21.4696 22.5399 21.4696 22.5399C22.8502 21.6421 23.157 20.4834 23.0301 19.418C21.9945 18.9816 20.8241 18.8449 20.0285 19.6206Z" fill="#F5EB7B"/>
<path d="M18.6088 13.877C14.0285 16.2319 11.2483 22.2787 10.7949 23.3237C10.8151 23.3854 10.838 23.4458 10.8629 23.5063C12.1594 24.2931 13.9795 23.3006 14.9965 22.1297C16.5764 20.4191 18.2143 18.3095 20.789 18.4798C21.4597 18.5187 22.2629 18.5317 22.9127 18.8145C22.5602 17.4918 21.6819 16.4414 21.6819 16.4414L18.6088 13.877Z" fill="#AFCA0B"/>
<path d="M18.9069 16.1906C18.9069 16.1906 11.6867 9.87805 3.32425 13.521C3.32425 13.521 -2.3129 14.1362 3.51358 14.9091C3.51358 14.9091 0.212795 16.3709 6.44481 16.7958C6.44481 16.7958 2.77919 17.5542 7.88354 18.6827C7.88354 18.6827 7.63493 20.3278 11.8812 19.9904C11.8812 19.9904 8.99223 21.412 12.6649 20.963C12.6649 20.963 17.157 25.9413 18.9069 16.1906Z" fill="#AFCA0B"/>
<path d="M16.0689 19.2596C15.8938 16.0099 11.9147 14.9264 9.16496 13.5578C7.64362 12.7598 6.00528 13.8425 4.36694 13.6144C4.13137 13.5585 3.90305 13.4766 3.68631 13.3707C3.56575 13.4196 3.4452 13.4701 3.32425 13.5229C3.32425 13.5229 -2.3129 14.1379 3.51358 14.911C3.51358 14.911 0.212795 16.3727 6.44481 16.7975C6.44481 16.7975 2.77919 17.556 7.88354 18.6845C7.88354 18.6845 7.63493 20.3296 11.8812 19.9922C11.8812 19.9922 8.99223 21.4138 12.6649 20.9647C12.6649 20.9647 12.8231 21.1399 13.0919 21.3603C14.6673 21.2224 16.1879 20.8831 16.0689 19.2596Z" fill="#D9D800"/>
<path d="M16.0692 19.2584C15.932 16.7208 13.4767 15.5044 11.0976 14.4414C11.7629 15.0499 12.1325 15.7845 11.7395 16.8067C11.2127 18.1753 9.63325 16.9211 8.69689 16.4643C8.22891 16.2363 7.58543 16.2937 7.52693 16.8637C6.82495 15.8939 5.5961 15.6663 4.42574 16.2363C3.93563 16.5152 3.36013 16.2652 2.77832 16.0121C3.11034 16.3318 4.10638 16.6372 6.44511 16.7967C6.44511 16.7967 2.7795 17.5551 7.88384 18.6837C7.88384 18.6837 7.63523 20.3287 11.8815 19.9913C11.8815 19.9913 8.99254 21.413 12.6652 20.9639C12.6652 20.9639 12.8234 21.1392 13.0922 21.3595C14.6676 21.2212 16.1882 20.8818 16.0692 19.2584Z" fill="#C8D200"/>
<path d="M16.0689 19.258C15.9563 17.1677 14.2697 15.9737 12.3488 15.0234C13.061 15.7317 13.4622 16.5618 13.0262 17.4905C12.3827 18.8016 10.8029 17.8325 9.63295 18.1741C9.51595 18.2311 9.28196 18.5169 9.10607 18.7442C8.98907 18.8008 8.81358 18.8582 8.69658 18.7442C8.46259 18.4592 8.28671 18.0601 8.05311 18.0031C7.3871 17.8556 6.65904 17.9068 6.03809 18.1642C6.45785 18.3259 7.05429 18.4996 7.88355 18.6833C7.88355 18.6833 7.63492 20.3284 11.8812 19.991C11.8812 19.991 8.99223 21.4127 12.6649 20.9635C12.6649 20.9635 12.8231 21.1388 13.0919 21.3592C14.6673 21.2209 16.1879 20.8815 16.0689 19.258Z" fill="#007ABD"/>
<path d="M16.0686 19.2594C16.0002 17.9956 15.3564 17.0593 14.4334 16.3066C14.6413 16.9522 14.6101 17.6455 14.1378 18.2895C13.6113 18.9735 12.6164 18.4605 12.1484 18.9169C10.8326 20.1457 9.36228 18.9216 7.93066 18.9975C8.1018 19.4558 8.83461 20.2347 11.8809 19.9923C11.8809 19.9923 8.99192 21.414 12.6646 20.9649C12.6646 20.9649 12.8228 21.1402 13.0916 21.3605C14.667 21.2222 16.1876 20.8829 16.0686 19.2594Z" fill="#1779BA"/>
<path d="M16.0689 19.2582C16.0081 18.1269 15.4864 17.2599 14.7168 16.5508C14.9974 17.33 15.1899 18.1004 14.6065 18.7451C14.1381 19.3148 13.3191 19.2582 12.5586 19.3726C12.3246 19.4292 12.1491 19.6006 11.9736 19.7713C11.8839 19.8582 11.7859 19.9367 11.6808 20.0054L11.8816 19.9911C11.8816 19.9911 8.99265 21.4128 12.6654 20.9637C12.6654 20.9637 12.8235 21.139 13.0923 21.3593C14.6674 21.221 16.1879 20.8817 16.0689 19.2582Z" fill="#89277F"/>
<path d="M16.0689 19.2591C16.0231 18.4113 15.7183 17.7107 15.244 17.1152C15.6887 18.3209 15.8824 19.7171 14.7815 20.3426C13.9038 20.7994 12.8508 20.3996 11.7974 20.8557C11.5539 20.9881 11.1606 20.9735 10.8018 20.8468C10.8187 21.0367 11.265 21.1372 12.6642 20.9662C12.6642 20.9662 12.8223 21.1414 13.091 21.3617C14.6674 21.222 16.1879 20.8826 16.0689 19.2591Z" fill="#792672"/>
<path d="M19.3736 23.8114L17.7937 24.1546L17.2467 23.8257C17.2467 23.8257 17.9403 20.7801 14.9712 22.8542C14.9712 22.8542 13.136 24.5321 15.3976 24.8861C15.3976 24.8861 14.0744 25.3475 14.2376 26.9525C14.2376 26.9525 15.2032 27.5511 15.9858 27.0707C15.9858 27.0707 17.0728 25.9641 15.6748 25.9326C15.6748 25.9326 17.0175 24.945 18.6174 25.5297C18.6174 25.5297 20.4486 27.9031 20.9672 25.5408C20.9672 25.5408 21.5609 23.6724 19.3736 23.8114Z" fill="#F9C300"/>
<path d="M20.0581 23.842C20.132 24.0967 20.1329 24.3559 19.9696 24.5789C19.7941 24.6929 19.5601 24.8639 19.3846 24.8073C18.5071 24.7503 17.5123 24.7503 16.6934 25.1493C16.5174 25.2063 16.3419 25.1493 16.225 25.0927C16.0495 24.922 16.108 24.6363 16.1665 24.409C15.3985 24.2485 14.7332 23.7874 14.8463 22.9785C14.4744 23.3737 13.5123 24.5901 15.3976 24.8851C15.3976 24.8851 14.0744 25.3462 14.2376 26.9512C14.2376 26.9512 15.2032 27.5498 15.9858 27.0694C15.9858 27.0694 17.0728 25.9628 15.6748 25.9313C15.6748 25.9313 17.0175 24.9436 18.6174 25.5283C18.6174 25.5283 20.4486 27.9018 20.9672 25.5395C20.9672 25.5395 21.4242 24.1009 20.0581 23.842Z" fill="#F2B000"/>
<path d="M30.3736 5.23563C28.9483 1.08348 22.6166 -2.58143 19.3277 2.51708C19.3277 2.51708 18.4704 2.30485 19.8384 0.070089C19.8384 0.070089 15.2586 0.929793 15.2502 5.06077C15.2502 5.06077 13.7198 4.49725 13.7289 3.00818C9.0396 7.62139 9.71549 16.3609 19.7582 17.4175C20.6874 15.9457 21.5475 14.432 22.402 12.9195C24.1439 11.6091 25.8854 9.76214 25.374 7.85596C25.8682 7.07467 26.3877 6.30881 26.9317 5.55956C26.8451 5.53337 26.7581 5.50679 26.668 5.48291C26.668 5.48291 25.0095 5.22562 22.9143 5.39933C22.6483 5.18903 22.4447 4.98797 22.4024 4.83698C23.6507 2.52903 28.5194 2.11112 30.3736 5.23563Z" fill="#AFCA0B"/>
<path d="M17.4735 14.2412C15.9522 14.1271 14.3143 13.6715 13.2024 12.5314C13.0269 12.3604 12.7929 12.0179 12.6174 11.8469C11.9428 11.1597 11.3736 10.3811 10.9277 9.53516C10.9665 13.2363 13.6028 16.7706 19.7585 17.4189C20.5822 16.1142 21.351 14.7778 22.1107 13.4373C20.5802 13.7586 19.0427 14.3309 17.4735 14.2412Z" fill="#B1C916"/>
<path d="M30.3735 5.23563C28.9482 1.08348 22.6165 -2.58143 19.3276 2.51708C19.3276 2.51708 18.4703 2.30485 19.8383 0.070089C19.8383 0.070089 15.2584 0.929793 15.2501 5.06077C15.2501 5.06077 13.7197 4.49725 13.7288 3.00818C11.9138 4.79423 10.9027 7.19692 10.9272 9.53377C11.3732 10.3797 11.9423 11.1584 12.6169 11.8455C12.7924 12.0165 13.0264 12.359 13.2019 12.53C14.3138 13.6701 15.9517 14.1266 17.4731 14.2398C19.0427 14.3295 20.5798 13.7572 22.1098 13.4352L22.4019 12.9187C24.1438 11.6083 25.8853 9.76139 25.3739 7.85519C25.868 7.0739 26.3876 6.30804 26.9315 5.55879C26.845 5.5326 26.758 5.50602 26.6679 5.48214C26.6679 5.48214 25.0094 5.22446 22.9142 5.39856C22.6482 5.18826 22.4446 4.98719 22.4023 4.83621C23.6506 2.52903 28.5193 2.11112 30.3735 5.23563Z" fill="#AFCA0B"/>
<path d="M30.3733 5.23653C29.1136 1.567 24.0243 -1.71929 20.5879 1.08207C21.676 0.471958 22.9749 0.25087 24.2413 0.634116C25.6627 1.03623 26.9394 1.92791 27.6507 3.20052C28.7353 3.5025 29.7334 4.15882 30.3733 5.23653Z" fill="#AFCA0B"/>
<path d="M19.7578 17.418L19.8752 17.4723C19.8752 17.4723 23.8621 19.1998 27.4993 15.6458C27.4993 15.6458 23.6211 16.2178 22.5515 12.8318C22.5515 12.8318 22.5756 12.8422 22.6182 12.8579C22.5778 12.8231 22.536 12.7897 22.493 12.7578C21.6088 14.3239 20.7206 15.8935 19.7578 17.418Z" fill="#F7B900"/>
<path d="M25.1445 16.3185C23.652 16.1683 22.29 15.9996 21.0521 15.2812C20.6335 16.0009 20.2023 16.7136 19.7588 17.4189L19.8762 17.4732C19.8762 17.4732 23.8632 19.2008 27.5003 15.6468C27.5003 15.6468 27.4106 15.6598 27.2552 15.6706C26.6074 16.0373 25.9612 16.3855 25.1445 16.3185Z" fill="#F2B000"/>
<path d="M26.0623 12.1451C26.0623 12.1451 28.6255 11.2638 30.505 14.802C30.505 14.802 33.2766 7.50836 26.9315 5.56055C25.2746 7.82998 23.8881 10.29 22.4932 12.7583C22.5358 12.7898 22.5777 12.823 22.6185 12.8584C22.9631 12.9863 24.5916 13.4854 26.0623 12.1451Z" fill="#F9C300"/>
<path d="M26.9313 5.56055C26.6082 6.004 26.2945 6.45384 25.9902 6.9098C26.0368 6.93214 26.0839 6.95486 26.1305 6.98183C28.6744 8.37885 30.9879 11.0223 29.8867 13.8187C30.1181 14.1308 30.3248 14.4598 30.5049 14.8028C30.5049 14.8028 33.2768 7.50836 26.9313 5.56055Z" fill="#FBCC19"/>
<path d="M24.2911 12.9268C23.899 13.1999 22.5527 12.832 22.5527 12.832C23.7243 16.403 27.5006 15.6461 27.5006 15.6461C24.3962 14.9305 24.2911 12.9268 24.2911 12.9268Z" fill="#6C5900"/>
<path d="M20.3325 12.0517C22.5106 12.0517 24.2764 10.331 24.2764 8.20848C24.2764 6.08591 22.5106 4.36523 20.3325 4.36523C18.1544 4.36523 16.3887 6.08591 16.3887 8.20848C16.3887 10.331 18.1544 12.0517 20.3325 12.0517Z" fill="white"/>
<path d="M21.5274 4.54679C19.4515 3.90394 17.2337 5.02248 16.574 7.04541C15.9143 9.06832 17.0622 11.2295 19.1381 11.8723C21.2135 12.5153 23.4309 11.3967 24.091 9.37339C24.7507 7.35084 23.6033 5.18964 21.5274 4.54679ZM19.3634 10.3987C17.8202 9.92075 16.9416 8.26716 17.4321 6.76307C17.9226 5.25975 19.6195 4.4039 21.163 4.8815C22.7056 5.35951 23.5843 7.01305 23.0938 8.51676C22.6033 10.0209 20.906 10.8763 19.3634 10.3987Z" fill="#F8F9FA"/>
<path d="M21.5274 4.54679C19.4515 3.90394 17.2337 5.02248 16.574 7.04541C15.9143 9.06832 17.0622 11.2295 19.1381 11.8723C21.2135 12.5153 23.4309 11.3967 24.091 9.37339C24.7507 7.35084 23.6033 5.18964 21.5274 4.54679ZM19.3341 11.2196C17.4879 10.6475 16.4361 8.66852 17.0231 6.86938C17.61 5.06986 19.6412 4.04569 21.4875 4.61728C23.3337 5.18849 24.3851 7.1675 23.7981 8.96741C23.2111 10.7669 21.1807 11.7912 19.3341 11.2196Z" fill="#EEF1F3"/>
<path d="M21.4668 9.98833C22.7569 9.98833 23.8028 8.96912 23.8028 7.71192C23.8028 6.45471 22.7569 5.43555 21.4668 5.43555C20.1767 5.43555 19.1309 6.45471 19.1309 7.71192C19.1309 8.96912 20.1767 9.98833 21.4668 9.98833Z" fill="#1B1A18"/>
<path d="M23.7629 7.46817C23.7869 7.18736 23.7383 6.90515 23.6216 6.64733C23.505 6.38951 23.3239 6.16428 23.0949 5.99219L22.3613 7.03408L23.7629 7.46817Z" fill="white"/>
<path d="M27.0958 5.88867C27.0958 5.88867 31.4148 7.44206 30.8041 12.3003C30.8041 12.3003 30.1448 7.66585 26.7578 6.5165L27.0958 5.88867Z" fill="#FCE58E"/>
<path d="M110.757 24.1465C112.09 24.1465 113.154 25.1926 113.154 26.4672C113.154 27.7675 112.09 28.787 110.757 28.787C109.399 28.787 108.334 27.7675 108.334 26.4672C108.334 25.1923 109.426 24.1465 110.757 24.1465Z" fill="#951B81"/>
<path d="M31.3878 32.8264C31.3878 35.6917 30.3681 37.5405 27.1191 37.5405C26.5736 37.5405 25.9807 37.517 25.459 37.3556L25.6487 34.2824C25.9333 34.4207 26.2653 34.4899 26.5736 34.4899C27.8069 34.4899 27.8305 33.0802 27.8305 32.2255V20.7628H31.3878V32.8264ZM39.925 20.4858C43.4823 20.4858 46.3281 22.7969 46.3281 26.3793C46.3281 29.9611 43.4823 32.2721 39.925 32.2721C36.3681 32.2721 33.5222 29.9611 33.5222 26.3793C33.5222 22.7969 36.3681 20.4858 39.925 20.4858ZM39.925 29.2208C41.7036 29.2208 42.7709 28.0652 42.7709 26.3786C42.7709 24.6912 41.7036 23.5356 39.925 23.5356C38.1467 23.5356 37.0796 24.6912 37.0796 26.3786C37.0796 28.0652 38.1467 29.2208 39.925 29.2208ZM48.7471 14.5234H52.3044V21.9642H52.3518C53.1582 20.8787 54.534 20.4851 56.0037 20.4851C59.2764 20.4851 61.268 23.3507 61.268 26.4707C61.268 29.8675 59.0155 32.2713 55.6005 32.2713C53.9879 32.2713 52.6124 31.3242 52.0673 30.5146H52.0199V31.9937H48.7471V14.5234ZM54.8656 29.2208C56.6444 29.2208 57.7115 28.0652 57.7115 26.3786C57.7115 24.6912 56.6444 23.5356 54.8656 23.5356C53.087 23.5356 52.0202 24.6912 52.0202 26.3786C52.0202 28.0652 53.087 29.2208 54.8656 29.2208ZM63.6874 14.5234H67.2448V21.9642H67.2921C68.0985 20.8787 69.474 20.4851 70.944 20.4851C74.2167 20.4851 76.2084 23.3507 76.2084 26.4707C76.2084 29.8675 73.9558 32.2713 70.5407 32.2713C68.9281 32.2713 67.5523 31.3242 67.0076 30.5146H66.9601V31.9937H63.6874V14.5234ZM69.806 29.2208C71.5846 29.2208 72.6518 28.0652 72.6518 26.3786C72.6518 24.6912 71.5846 23.5356 69.806 23.5356C68.0273 23.5356 66.9605 24.6912 66.9605 26.3786C66.9601 28.0652 68.0273 29.2208 69.806 29.2208ZM80.1225 15.2171C81.2605 15.2171 82.1858 16.1184 82.1858 17.2273C82.1855 17.7605 81.968 18.2718 81.5812 18.6489C81.1944 19.0261 80.6698 19.2381 80.1225 19.2387C79.5754 19.2381 79.0508 19.0261 78.664 18.6489C78.2771 18.2718 78.0597 17.7605 78.0593 17.2273C78.0597 16.6942 78.2772 16.183 78.664 15.806C79.0509 15.4292 79.5755 15.2173 80.1225 15.2171ZM78.3435 20.7628H81.9013V31.9937H78.3435V20.7628ZM84.4617 20.7628H88.019V22.5654H88.0668C88.8257 21.2023 89.8214 20.4858 91.3862 20.4858C91.7894 20.4858 92.2399 20.509 92.572 20.6018V23.7679C92.074 23.6293 91.5759 23.5365 91.0542 23.5365C88.3506 23.5365 88.0186 25.0617 88.0186 27.3031V31.9944H84.4613L84.4617 20.7628ZM105.787 31.9944H102.514V30.5154H102.466C101.921 31.325 100.545 32.2721 98.9335 32.2721C95.5172 32.2721 93.2653 29.869 93.2653 26.4714C93.2653 23.3515 95.2566 20.4858 98.5285 20.4858C100 20.4858 101.375 20.8791 102.182 21.9649H102.229V14.5234H105.787V31.9944ZM99.6675 23.5365C97.8882 23.5365 96.8222 24.6919 96.8222 26.3793C96.8222 28.0661 97.8882 29.2216 99.6675 29.2216C101.446 29.2216 102.514 28.0661 102.514 26.3793C102.514 24.6919 101.446 23.5365 99.6675 23.5365Z" fill="#951B81"/>
<path d="M123.933 24.3912C123.577 23.9055 122.913 23.5358 122.178 23.5358C120.399 23.5358 119.332 24.6912 119.332 26.3787C119.332 28.0654 120.399 29.2208 122.178 29.2208C122.959 29.2208 123.529 28.8276 123.933 28.3657L126.279 30.7688C125.165 31.8782 123.528 32.2706 122.178 32.2706C118.62 32.2706 115.774 29.9596 115.774 26.3775C115.774 22.7954 118.62 20.4844 122.178 20.4844C123.528 20.4844 125.165 20.8777 126.279 21.9862L123.933 24.3912ZM133.536 20.486C137.094 20.486 139.939 22.797 139.939 26.3795C139.939 29.9612 137.094 32.2722 133.536 32.2722C129.98 32.2722 127.134 29.9612 127.134 26.3795C127.134 22.797 129.98 20.486 133.536 20.486ZM133.536 29.2208C135.315 29.2208 136.383 28.0654 136.383 26.3787C136.383 24.6912 135.315 23.5358 133.536 23.5358C131.759 23.5358 130.691 24.6912 130.691 26.3787C130.691 28.0654 131.759 29.2208 133.536 29.2208ZM142.026 20.7629H145.442V22.2881H145.489C145.964 21.41 147.125 20.4851 148.857 20.4851C150.47 20.4851 151.797 21.133 152.415 22.4962C153.244 21.0629 154.359 20.4851 156.066 20.4851C159.197 20.4851 160.144 22.6344 160.144 25.3611V31.9937H156.588V25.4543C156.588 24.4147 156.184 23.5365 155.023 23.5365C153.386 23.5365 152.865 24.6689 152.865 26.0556V31.9945H149.308V26.0556C149.308 25.2239 149.354 23.5365 147.718 23.5365C145.868 23.5365 145.584 24.9458 145.584 26.4018V31.9945H142.027L142.026 20.7629Z" fill="#AFCA0B"/>
<path d="M30.1326 18.806C30.3219 19.014 30.4614 19.2313 30.5706 19.4369C31.0897 19.2148 31.514 18.8243 31.7713 18.3318L30.8409 17.9232C30.6677 18.2606 30.4269 18.5608 30.1326 18.806ZM30.3824 15.2239C30.1452 15.2944 29.7579 15.4396 29.3745 15.7089C29.5409 15.8614 29.7385 16.0008 29.9706 16.1152L30.3824 15.2239ZM30.895 16.379C30.8563 16.0123 30.7565 15.6543 30.5994 15.3191L30.1871 16.2096C30.4267 16.302 30.6646 16.3556 30.895 16.379ZM29.0168 15.6857C28.8435 15.493 28.6955 15.2801 28.576 15.0517C28.0619 15.2745 27.6421 15.6629 27.3871 16.1518L28.3176 16.5609C28.4886 16.2268 28.7263 15.9292 29.0168 15.6857ZM28.7606 19.5055C29.2719 19.6813 29.8286 19.6872 30.3436 19.5221C30.2339 19.3175 30.0998 19.1263 29.944 18.9523C29.5873 19.2053 29.1864 19.3927 28.7606 19.5055ZM28.22 16.7708L27.2895 16.3621C27.0849 16.8657 27.0618 17.4221 27.2239 17.9401C27.482 17.8849 27.7458 17.8589 28.0101 17.8627C28.0052 17.4888 28.0765 17.1177 28.22 16.7708ZM27.3061 18.1632C27.5177 18.6617 27.8964 19.0756 28.3804 19.3376C28.1838 18.9488 28.0621 18.5281 28.0215 18.0965C27.7812 18.093 27.5413 18.1154 27.3061 18.1632ZM28.2642 18.1123C28.3035 18.4764 28.4032 18.8318 28.5594 19.1646L28.9674 18.2826C28.742 18.1948 28.5054 18.1376 28.2642 18.1123ZM31.8539 16.3247C31.6429 15.8241 31.2636 15.4082 30.778 15.1453C30.8927 15.3695 31.0879 15.824 31.1373 16.3929C31.378 16.396 31.6183 16.3731 31.8539 16.3247ZM29.7366 17.1837L30.7223 17.617C30.8518 17.2988 30.9151 16.9586 30.9084 16.6163C30.6274 16.5894 30.3519 16.523 30.0903 16.4191L29.7366 17.1837ZM31.9365 16.5496C31.6955 16.6018 31.4495 16.6288 31.2025 16.6302C31.1847 16.6302 31.1662 16.6283 31.1484 16.6278C31.1523 16.999 31.0812 17.3673 30.9393 17.7118L31.8694 18.1208C32.073 17.6195 32.0967 17.0657 31.9365 16.5496ZM29.2808 18.167C29.5316 18.2893 29.7623 18.4476 29.9649 18.6365C30.2386 18.4129 30.4631 18.1378 30.625 17.8276L29.6389 17.3943L29.2808 18.167ZM28.7761 19.2594C29.1324 19.1529 29.469 18.9918 29.7733 18.7821C29.5972 18.621 29.3985 18.4851 29.1832 18.3785L28.7761 19.2594ZM29.4223 17.2996L28.4365 16.8663C28.3059 17.1876 28.2427 17.5311 28.2504 17.8766C28.5303 17.9028 28.8048 17.9685 29.0654 18.0715L29.4223 17.2996ZM30.3978 14.9782C29.8823 14.8008 29.3206 14.7963 28.8022 14.9654C28.9042 15.1527 29.033 15.3503 29.2049 15.5386C29.5637 15.2818 29.9681 15.0918 30.3978 14.9782ZM29.8729 16.3255C29.6206 16.2029 29.3885 16.0443 29.1844 15.8548C28.9149 16.0767 28.6937 16.3488 28.5338 16.6552L29.5203 17.0889L29.8729 16.3255Z" fill="#951B81"/>
</g>
</g>
</g>
<defs>
<clipPath id="clip0_337_1634">
<rect width="159.42" height="41.25" fill="white" transform="translate(0.799805 0.0292969)"/>
</clipPath>
<clipPath id="clip1_337_1634">
<rect width="159.375" height="41.25" fill="white" transform="translate(0.822266 0.0292969)"/>
</clipPath>
</defs>
</svg>
