<svg width="160" height="37" viewBox="0 0 160 37" fill="none" xmlns="http://www.w3.org/2000/svg">
<g clip-path="url(#clip0_337_4832)">
<g clip-path="url(#clip1_337_4832)">
<path fill-rule="evenodd" clip-rule="evenodd" d="M92.1635 22.5446L91.0826 21.9834L89.9153 21.3849C89.6796 21.2509 89.4685 21.0787 89.2888 20.8755C89.1176 20.6835 89.0235 20.434 89.0269 20.1764C89.0269 19.9815 89.0888 19.7748 89.2142 19.5599C89.3371 19.3514 89.5491 19.1647 89.8407 19.0141L90.5689 18.7711L91.4743 18.686L92.7187 18.7394L93.3647 18.7875C93.4062 18.7485 93.2892 17.3315 93.2892 17.3315C93.2486 17.2961 92.7806 17.2816 92.7806 17.2816L91.7286 17.2652L90.2662 17.3732C89.7822 17.4421 89.3143 17.5955 88.8836 17.8264C88.4224 18.0652 88.0266 18.4124 87.7299 18.8382C87.4433 19.2567 87.2924 19.7529 87.2967 20.2598C87.2967 20.7911 87.4264 21.2553 87.6739 21.6515C87.9274 22.0485 88.2927 22.3949 88.7666 22.686C88.7666 22.6877 89.9907 23.3061 89.9907 23.3061L91.1369 23.9063L91.7354 24.4194C91.8727 24.5908 91.9456 24.8193 91.9456 25.0957C91.9456 25.4004 91.8634 25.666 91.7023 25.8836C91.537 26.1048 91.2844 26.287 90.941 26.4357C90.6401 26.5602 90.3231 26.6384 89.9992 26.6678L89.0608 26.7294L87.7977 26.6832L87.0695 26.628C87.0271 26.6669 87.089 28.0495 87.0924 28.0495C87.128 28.0867 87.7494 28.142 87.7494 28.142L88.8192 28.1864C89.5219 28.1864 90.1755 28.1212 90.7639 27.9806C91.3047 27.8638 91.8227 27.6573 92.2957 27.3696C92.7009 27.1148 93.0383 26.7784 93.2926 26.3686C93.547 25.9543 93.675 25.4811 93.675 24.9534C93.675 24.4312 93.5436 23.9742 93.285 23.5844C93.0281 23.2037 92.6509 22.8528 92.1635 22.5446ZM87.1068 26.6705V26.6669C87.1068 26.6705 87.1102 26.6705 87.1161 26.6705H87.1068ZM103.582 18.2916C103.213 17.8928 102.757 17.5837 102.25 17.3877C101.743 17.1945 101.158 17.0912 100.508 17.0912C99.8439 17.0912 99.1954 17.2245 98.5808 17.4856C97.984 17.729 97.4533 18.1109 97.0337 18.5998C96.5666 19.132 96.2012 19.7446 95.9536 20.4076C95.712 21.0559 95.5951 21.7902 95.5951 22.5835C95.5951 23.3995 95.757 24.1538 96.0749 24.822C96.3945 25.4874 96.787 26.0441 97.2397 26.472C97.7788 26.9833 98.4655 27.3913 99.2962 27.6832C100.124 27.9752 101.115 28.1202 102.234 28.1202L103.348 28.0903L103.905 28.0513C103.939 28.0178 104.127 26.6361 104.127 26.6361C104.088 26.5917 103.746 26.6153 103.746 26.6153L103.473 26.6334L102.385 26.6597C101.666 26.6597 101.038 26.5962 100.532 26.4683C100.047 26.3492 99.5853 26.153 99.1631 25.8872C98.5367 25.4838 98.0687 24.9679 97.7619 24.356C97.4541 23.722 97.2948 23.0262 97.2964 22.3215L104.867 22.3586V22.3215C104.861 21.4076 104.748 20.6089 104.532 19.9561C104.337 19.3403 104.013 18.773 103.582 18.2916ZM104.081 26.6742H104.089C104.086 26.6742 104.084 26.6815 104.081 26.685V26.6742ZM97.3821 21.1383C97.3821 21.1347 97.3838 21.1329 97.3838 21.1329L98.4307 21.1383H97.3821ZM97.3956 21.1012C97.4219 20.986 97.4592 20.8782 97.4948 20.7685C97.7322 20.1239 98.0594 19.5717 98.4985 19.1519C99.0131 18.6651 99.6616 18.4166 100.437 18.4166C101.203 18.4166 101.833 18.6642 102.301 19.1411C102.761 19.6125 103.047 20.278 103.161 21.1012H97.3956ZM113.524 17.1555L113.486 17.1656H113.485C113.483 17.1656 113.48 17.17 113.476 17.17C112.973 17.2643 112.361 17.4883 111.606 17.8102C110.848 18.1356 110.055 18.5327 109.254 18.9888V18.7059L109.292 17.4004L107.636 17.3614C107.595 17.4004 107.62 20.7158 107.62 20.7158L107.629 23.4466L107.614 26.8709L107.595 28.0486L109.286 28.0876C109.327 28.0486 109.292 26.1647 109.292 26.1647L109.258 23.2344L109.277 21.4883L109.293 20.4329C110.307 19.976 111.232 19.5726 112.032 19.2734L113.845 18.6742L113.837 18.6397L113.524 17.1555ZM119.851 25.9479L119.812 25.8682C119.472 24.9724 116.154 17.1828 116.154 17.1828C116.099 17.1619 114.605 17.8537 114.605 17.8537C114.586 17.9081 114.959 18.7485 114.959 18.7485L119.133 28.0622L120.415 28.0867C120.449 28.0658 121.224 26.2961 121.224 26.2961L124.948 17.7648L123.464 17.1936C123.409 17.2163 119.929 25.7585 119.851 25.9479ZM127.412 15.3468L129.342 15.3858V13.5273L127.451 13.4883L127.412 15.3468ZM129.178 22.5871L129.196 20.2371L129.244 17.4004L127.554 17.3614C127.515 17.4004 127.544 20.4484 127.544 20.4484L127.548 22.8301L127.535 25.9734L127.515 28.0486H127.557L129.205 28.0876H129.246L129.21 26.5218L129.178 22.5871ZM127.555 28.0105H127.554C127.555 28.0105 127.555 28.0051 127.555 28.0051V28.0105ZM137.553 26.4702C136.982 26.3798 136.427 26.2083 135.904 25.9606C135.3 25.6798 134.781 25.2429 134.401 24.695C134.026 24.1546 133.837 23.4675 133.837 22.666C133.837 21.9933 134.04 21.3541 134.437 20.7657C134.835 20.174 135.404 19.7186 136.07 19.4611C136.58 19.2468 137.114 19.0911 137.66 18.9969C138.195 18.9063 138.864 18.8573 139.636 18.8573H139.963C140.002 18.8146 139.919 17.3985 139.919 17.3985L139.684 17.3622H139.446C138.516 17.3622 137.596 17.4711 136.719 17.6814C135.835 17.8954 135.075 18.2117 134.445 18.6143C133.749 19.0563 133.162 19.6502 132.729 20.3514C132.295 21.0519 132.068 21.8609 132.074 22.685C132.074 23.627 132.314 24.4892 132.794 25.2526C133.276 26.0141 133.945 26.6352 134.795 27.0975C135.419 27.4358 136.133 27.6905 136.917 27.8645C137.704 28.035 138.56 28.1212 139.462 28.1212H140.037C140.076 28.0858 140.204 26.6705 140.204 26.6705L140.208 26.628H139.501C138.822 26.628 138.162 26.5726 137.553 26.4702ZM151.175 22.3215C151.165 21.4076 151.053 20.6089 150.834 19.9561C150.641 19.3395 150.318 18.7717 149.884 18.2916C149.516 17.8929 149.061 17.5837 148.555 17.3877C148.05 17.1945 147.459 17.0912 146.809 17.0912C146.145 17.0912 145.502 17.2245 144.888 17.4856C144.291 17.7313 143.76 18.1129 143.338 18.5998C142.869 19.1303 142.504 19.7433 142.26 20.4076C142.021 21.0522 141.9 21.782 141.9 22.5835C141.9 23.3995 142.061 24.1538 142.383 24.822C142.696 25.4856 143.091 26.0423 143.551 26.472C144.081 26.9833 144.772 27.3913 145.606 27.6832C146.429 27.9752 147.417 28.1202 148.536 28.1202L149.651 28.0903L150.21 28.0513C150.242 28.0178 150.434 26.6361 150.434 26.6361C150.39 26.5917 150.058 26.6153 150.058 26.6153L149.778 26.6334L148.689 26.6597C147.969 26.6597 147.347 26.5962 146.833 26.4683C146.35 26.3475 145.89 26.1515 145.468 25.8872C144.841 25.4838 144.372 24.9679 144.069 24.356C143.761 23.722 143.601 23.0263 143.601 22.3215L151.175 22.3586L151.175 22.3215ZM150.39 26.6724H150.392C150.39 26.6724 150.39 26.6778 150.39 26.685V26.6724ZM143.691 21.1383C143.691 21.1347 143.693 21.1329 143.693 21.1329L144.735 21.1383H143.691ZM143.702 21.1012C143.731 20.9871 143.764 20.8744 143.802 20.763C144.042 20.1202 144.369 19.5681 144.806 19.1519C145.321 18.6651 145.971 18.4166 146.742 18.4166C147.505 18.4166 148.131 18.6642 148.603 19.1411C149.064 19.6125 149.352 20.278 149.466 21.1012H143.702ZM159.351 23.5853C159.094 23.2027 158.717 22.8519 158.227 22.5446L157.149 21.9834L155.978 21.3849C155.743 21.2506 155.532 21.0784 155.354 20.8755C155.18 20.6843 155.087 20.4343 155.091 20.1764C155.091 19.9797 155.155 19.7711 155.279 19.5599C155.4 19.3514 155.616 19.1647 155.909 19.0141L156.632 18.7711L157.54 18.686L158.785 18.7394L159.431 18.7875C159.472 18.7485 159.355 17.3315 159.355 17.3315C159.314 17.2961 158.844 17.2816 158.844 17.2816L157.796 17.2652L156.33 17.3732C155.846 17.4423 155.379 17.5958 154.95 17.8264C154.488 18.0647 154.092 18.412 153.797 18.8382C153.51 19.2567 153.359 19.7527 153.363 20.2598C153.363 20.7911 153.492 21.2553 153.742 21.6515C153.992 22.0485 154.362 22.3967 154.83 22.686C154.83 22.6877 156.058 23.3061 156.058 23.3061L157.199 23.9063L157.802 24.4194C157.942 24.5908 158.017 24.8193 158.017 25.0957C158.017 25.4076 157.931 25.6624 157.769 25.8836C157.605 26.0975 157.349 26.2852 157.009 26.4357C156.708 26.5595 156.39 26.6376 156.065 26.6678L155.123 26.7294L153.862 26.6832L153.136 26.628C153.093 26.6669 153.157 28.0495 153.157 28.0495C153.19 28.0867 153.814 28.142 153.814 28.142L154.889 28.1864C155.592 28.1864 156.246 28.1212 156.831 27.9806C157.371 27.8636 157.887 27.6571 158.359 27.3696C158.767 27.1183 159.11 26.7756 159.363 26.3686C159.614 25.9543 159.743 25.4811 159.743 24.9534C159.741 24.4339 159.611 23.9752 159.351 23.5853ZM153.171 26.6705V26.6669C153.171 26.6705 153.175 26.6705 153.175 26.6705H153.171Z" fill="#898E93"/>
<path fill-rule="evenodd" clip-rule="evenodd" d="M54.8786 12.8864L54.9385 23.2183C54.9385 23.9055 54.8559 24.3053 54.7843 24.5229C54.7171 24.75 54.59 24.9549 54.4162 25.1158C54.2126 25.304 53.9651 25.438 53.6964 25.5057C53.2929 25.6208 52.7281 25.7197 52.0136 25.8031L50.9121 25.9327L51.437 29.4495L52.4506 29.3589C53.6937 29.2419 54.7272 29.0007 55.5295 28.6345C56.3664 28.2555 57.0291 27.7841 57.5114 27.2374C57.9811 26.7097 58.3244 26.0817 58.515 25.4014C58.6948 24.7554 58.7842 24.0875 58.7807 23.4168L58.8215 12.8756L54.8786 12.8864ZM70.3583 17.8339C69.8089 17.2548 69.143 16.7987 68.4044 16.4957C67.681 16.2002 66.8786 16.0533 66.0146 16.0533C65.1796 16.0533 64.3745 16.2147 63.6157 16.5311C62.8487 16.8575 62.1742 17.3198 61.6103 17.9136C60.9951 18.5376 60.5195 19.2852 60.215 20.1068C59.9173 20.9408 59.7688 21.8206 59.7762 22.7061C59.7762 23.6725 59.9466 24.6046 60.2839 25.4686C60.6329 26.3661 61.1361 27.1313 61.7816 27.7496C62.3401 28.2843 62.9984 28.7036 63.7191 28.9835C64.4483 29.2609 65.2227 29.4002 66.0028 29.3942C66.8587 29.3942 67.6447 29.251 68.3328 28.9654C69.0302 28.6788 69.6669 28.2629 70.2096 27.7396C70.8778 27.0972 71.3965 26.3156 71.7291 25.4504C72.0683 24.5819 72.2411 23.6575 72.2386 22.7251C72.2386 21.7722 72.0863 20.8783 71.7826 20.0705C71.4674 19.2346 70.9824 18.4731 70.3583 17.8339ZM66.0046 25.891C65.7272 25.891 65.4734 25.8521 65.2331 25.7614C65.0135 25.6841 64.8109 25.565 64.6366 25.4105C64.283 25.0932 64.0346 24.7305 63.8768 24.2999C63.6988 23.7869 63.6105 23.2472 63.6157 22.7042C63.6157 22.2011 63.7019 21.7106 63.8714 21.25C64.0327 20.8113 64.2449 20.4531 64.5042 20.1875C64.7308 19.9554 64.9502 19.7958 65.1724 19.6988C65.3945 19.6045 65.6755 19.5574 66.0137 19.5574C66.2894 19.5574 66.5495 19.6036 66.807 19.6988C67.0455 19.7913 67.2413 19.9127 67.4118 20.0796C67.739 20.3915 67.9838 20.7777 68.137 21.2274C68.3093 21.7369 68.3981 22.2618 68.3981 22.7949C68.3981 23.2981 68.3165 23.7741 68.1497 24.2274C68.0062 24.6335 67.7764 25.0038 67.4761 25.3126C67.2948 25.4985 67.0817 25.6363 66.8342 25.7378C66.5705 25.8431 66.2886 25.8952 66.0046 25.891ZM83.6547 19.9627C83.2632 19.1639 82.6775 18.4763 81.9512 17.9626C81.2749 17.474 80.438 17.0886 79.4535 16.8103C78.7472 16.6172 77.8224 16.5102 76.8007 16.4513L76.8352 11.541H72.9802V29.2873L74.0627 29.2927H75.0038C76.1779 29.2927 77.2033 29.2256 78.0528 29.0978C78.8748 28.9782 79.6788 28.7568 80.4462 28.4387C81.5895 27.9554 82.5197 27.2047 83.2042 26.2075C83.8914 25.1984 84.2386 23.9971 84.2386 22.6327C84.2377 21.6508 84.041 20.7523 83.6547 19.9627ZM80.3973 22.6807C80.3973 23.2809 80.2785 23.7976 80.0419 24.212C79.8144 24.6172 79.4662 24.94 78.9711 25.2038C78.6103 25.3951 78.1625 25.5402 77.6357 25.6345C77.3846 25.6807 77.0618 25.6789 76.778 25.7052L76.7762 25.3797L76.7608 22.9273L76.7825 20.0052C77.1207 20.0297 77.4671 20.0569 77.4671 20.0569L78.5623 20.3244C79.128 20.5156 79.5786 20.8203 79.9285 21.2419C80.2431 21.6181 80.3973 22.0895 80.3973 22.6807Z" fill="#D26F38"/>
<path fill-rule="evenodd" clip-rule="evenodd" d="M36.117 11.3398C28.1813 24.0298 15.4215 33.3988 0.40332 36.8694H36.117V11.3398Z" fill="#898E93"/>
<path fill-rule="evenodd" clip-rule="evenodd" d="M5.19043 25.5919C13.1261 12.901 25.884 3.53291 40.9023 0.0605469H5.19043V25.5919Z" fill="#D26F38"/>
</g>
</g>
<defs>
<clipPath id="clip0_337_4832">
<rect width="159.42" height="37.3" fill="white" transform="translate(0.379883 0.0605469)"/>
</clipPath>
<clipPath id="clip1_337_4832">
<rect width="159.373" height="37.3" fill="white" transform="translate(0.40332 0.0605469)"/>
</clipPath>
</defs>
</svg>
