<svg width="161" height="37" viewBox="0 0 161 37" fill="none" xmlns="http://www.w3.org/2000/svg">
<g clip-path="url(#clip0_337_6008)">
<g clip-path="url(#clip1_337_6008)">
<g clip-path="url(#clip2_337_6008)">
<mask id="mask0_337_6008" style="mask-type:luminance" maskUnits="userSpaceOnUse" x="0" y="0" width="161" height="40">
<path d="M160.369 0.833984H0.960938V39.714H160.369V0.833984Z" fill="white"/>
</mask>
<g mask="url(#mask0_337_6008)">
<path d="M157.704 34.443C157.008 34.4497 156.343 34.7316 155.854 35.2271C155.366 35.7226 155.094 36.3914 155.097 37.0871C155.1 37.7828 155.379 38.4489 155.872 38.9397C156.365 39.4305 157.033 39.706 157.729 39.706C158.425 39.706 159.093 39.4305 159.586 38.9397C160.079 38.4489 160.358 37.7828 160.362 37.0871C160.365 36.3914 160.093 35.7226 159.604 35.2271C159.116 34.7316 158.45 34.4497 157.754 34.443H157.704ZM157.704 39.4048C157.248 39.4124 156.799 39.2844 156.415 39.0373C156.032 38.7901 155.73 38.4346 155.548 38.016C155.366 37.5972 155.313 37.1341 155.394 36.6851C155.476 36.2361 155.689 35.8213 156.007 35.4933C156.323 35.1652 156.732 34.9386 157.178 34.8421C157.624 34.7457 158.089 34.7836 158.513 34.9513C158.938 35.1188 159.304 35.4086 159.563 35.7838C159.824 36.159 159.967 36.6028 159.973 37.059V37.0978C159.987 37.6964 159.761 38.2756 159.346 38.708C158.932 39.1404 158.363 39.3906 157.764 39.4035H157.705M147.599 33.7241H141.878V24.7692C141.878 22.6338 141.84 19.8849 138.902 19.8849C135.923 19.8849 135.467 22.2115 135.467 24.6137V33.7234H129.747V15.3085H135.239V17.8251H135.316C135.865 16.8858 136.659 16.113 137.613 15.5892C138.568 15.0654 139.646 14.8101 140.734 14.8504C146.532 14.8504 147.601 18.6626 147.601 23.6219L147.599 33.7241ZM123.292 12.7913C122.636 12.7914 121.994 12.5969 121.448 12.2324C120.902 11.8678 120.476 11.3496 120.225 10.7434C119.974 10.1371 119.907 9.46987 120.036 8.82616C120.164 8.18244 120.48 7.59111 120.944 7.12695C121.408 6.66279 121.999 6.34663 122.644 6.21849C123.287 6.09033 123.955 6.15593 124.561 6.40698C125.168 6.65802 125.687 7.08325 126.051 7.62888C126.417 8.17452 126.611 8.81605 126.611 9.47235C126.611 9.90812 126.526 10.3396 126.359 10.7422C126.192 11.1449 125.948 11.5108 125.639 11.8189C125.331 12.1271 124.966 12.3716 124.562 12.5385C124.16 12.7053 123.728 12.7912 123.292 12.7913ZM126.153 33.7241H120.427V15.3085H126.153V33.7241ZM150.451 0.844425H117.551C116.805 0.836002 116.086 1.12426 115.551 1.64585C115.017 2.16743 114.712 2.87969 114.702 3.62609V36.6481C114.711 37.3949 115.016 38.1076 115.551 38.6297C116.085 39.1519 116.805 39.4406 117.551 39.4328H150.451C151.199 39.4421 151.92 39.1541 152.457 38.632C152.993 38.1099 153.301 37.3963 153.31 36.6481V3.62371C153.3 2.87583 152.992 2.16277 152.456 1.64119C151.92 1.11961 151.198 0.832179 150.451 0.842043M99.1329 19.7532C96.2726 19.7532 94.5565 21.6623 94.5565 24.4439C94.5565 27.2256 96.2719 29.1364 99.1329 29.1364C101.994 29.1364 103.713 27.2304 103.713 24.4439C103.713 21.6575 101.996 19.7532 99.1329 19.7532ZM108.98 33.7133H103.713V31.2712H103.635C102.974 32.1595 102.118 32.8833 101.131 33.3862C100.145 33.8892 99.0552 34.1577 97.9482 34.1708C92.4518 34.1708 88.8312 30.2056 88.8312 24.5982C88.8312 19.4483 92.0353 14.7194 97.3023 14.7194C99.6695 14.7194 101.881 15.3668 103.178 17.1615H103.253V6.54655H108.979L108.98 33.7133ZM81.4863 22.3675C81.4973 21.9035 81.4139 21.4423 81.2412 21.0115C81.0686 20.5807 80.8102 20.1895 80.4818 19.8614C80.1535 19.5335 79.7619 19.2755 79.3309 19.1032C78.8998 18.931 78.4383 18.8478 77.9741 18.8591C76.9746 18.797 75.9908 19.1299 75.2346 19.7862C74.4783 20.4425 74.0104 21.3695 73.9317 22.3675H81.4863ZM86.3321 30.5278C85.3815 31.6801 84.1864 32.6066 82.8334 33.2403C81.4804 33.874 80.0034 34.1989 78.5092 34.1916C72.7888 34.1916 68.2088 30.3748 68.2088 24.4642C68.2088 18.5535 72.7882 14.7384 78.5092 14.7384C83.8561 14.7384 87.2092 18.5506 87.2092 24.4642V26.257H73.9317C74.097 27.2738 74.6243 28.1967 75.4166 28.8556C76.2089 29.5144 77.2126 29.8648 78.2429 29.8422C79.0572 29.8372 79.8572 29.6287 80.5702 29.2356C81.2832 28.8426 81.8865 28.2775 82.3253 27.5919L86.3321 30.5278ZM29.4644 15.3037H34.9579V17.8203H35.0359C35.5846 16.8806 36.3784 16.1076 37.3324 15.5837C38.2864 15.0598 39.3648 14.8046 40.4525 14.8456C46.2535 14.8456 47.3214 18.6607 47.3214 23.6172V33.7158H41.6008V24.7626C41.6008 22.6254 41.5615 19.8783 38.6214 19.8783C35.6479 19.8783 35.1891 22.2054 35.1891 24.6071V33.7133H29.4686L29.4644 15.3037ZM50.2221 6.54832H55.9426V22.7886L62.4257 15.2936H69.4393L61.9312 23.819L69.2814 33.7247H62.0915L56.0188 24.622H55.9438V33.7234H50.2233L50.2221 6.54832ZM20.5721 15.3019H26.2925V33.7169H20.5721V15.3019ZM23.4323 6.14686C24.0886 6.14699 24.7301 6.34163 25.2758 6.7062C25.8215 7.07076 26.2467 7.58887 26.4978 8.19501C26.7489 8.80115 26.8145 9.4681 26.6864 10.1115C26.5583 10.755 26.2422 11.346 25.778 11.8098C25.3139 12.2736 24.7226 12.5895 24.0789 12.7174C23.4352 12.8455 22.768 12.7797 22.1616 12.5286C21.5553 12.2775 21.0371 11.8524 20.6725 11.3069C20.3078 10.7614 20.1132 10.1201 20.1132 9.46401C20.1132 9.02835 20.1991 8.59695 20.3659 8.19446C20.5327 7.79196 20.7772 7.42625 21.0854 7.11823C21.3936 6.81019 21.7595 6.56586 22.1622 6.3992C22.5649 6.23253 22.9965 6.14678 23.4323 6.14686ZM0.960938 6.55249H6.9156V28.234H17.9394V33.727H0.960938V6.55249ZM158.122 37.2414C158.22 37.2424 158.317 37.2232 158.407 37.1851C158.498 37.147 158.579 37.0907 158.647 37.0199C158.714 36.949 158.766 36.865 158.8 36.7731C158.834 36.6811 158.849 36.5833 158.843 36.4855C158.843 35.9494 158.519 35.6933 157.855 35.6933H156.783V38.4999H157.187V37.2765H157.682L157.693 37.2914L158.463 38.4999H158.894L158.066 37.2491L158.122 37.2414ZM157.655 36.9602H157.188V36.0113H157.781C158.087 36.0113 158.436 36.0614 158.436 36.4622C158.436 36.9233 158.083 36.9602 157.653 36.9602" fill="#0A66C2"/>
</g>
</g>
</g>
</g>
<defs>
<clipPath id="clip0_337_6008">
<rect width="159.42" height="38.87" fill="white" transform="translate(0.955078 0.839844)"/>
</clipPath>
<clipPath id="clip1_337_6008">
<rect width="159.43" height="38.87" fill="white" transform="translate(0.955078 0.839844)"/>
</clipPath>
<clipPath id="clip2_337_6008">
<rect width="159.408" height="38.88" fill="white" transform="translate(0.960938 0.833984)"/>
</clipPath>
</defs>
</svg>
