<svg width="149" height="37" viewBox="0 0 149 37" fill="none" xmlns="http://www.w3.org/2000/svg">
<g clip-path="url(#clip0_337_1375)">
<g clip-path="url(#clip1_337_1375)">
<g clip-path="url(#clip2_337_1375)">
<path d="M46.1391 14.8947C47.833 14.8947 49.206 13.5269 49.206 11.8399C49.206 10.1525 47.833 8.78496 46.1391 8.78496C44.4452 8.78496 43.0721 10.1525 43.0721 11.8399C43.0721 13.5269 44.4452 14.8947 46.1391 14.8947ZM147.357 25.3321C146.891 25.0054 146.53 24.9513 146.232 25.5857C141.08 36.6953 132.4 31.1514 133.262 31.6393C135.188 30.7623 140.252 26.7181 139.486 21.134C139.022 17.7213 136.08 16.2076 132.958 16.7496C127.508 17.6957 125.503 23.5493 126.524 28.7316C126.702 29.6216 127.021 30.3556 127.34 31.0746C121.181 36.0617 118.736 26.6102 118.458 25.4807C118.447 25.4202 123.214 21.4641 124.539 12.037C125.929 2.15683 122.763 0.35782 119.527 0.413949C113.537 0.51786 111.919 12.9789 114.093 23.3642C113.911 23.4114 113.064 23.8788 111.702 23.9312C110.722 20.8608 106.535 18.1695 105.439 19.2066C102.696 21.8009 106.104 26.873 108.502 27.2708C107.062 36.1049 98.0535 33.917 99.7303 22.8492C102.664 17.4249 104.895 9.35921 104.497 4.49008C104.356 2.76619 103.076 0.45655 100.181 0.57111C94.6134 0.790446 94.0081 13.2549 94.6608 22.1014C94.6284 21.8835 94.3185 23.1762 92.0369 23.819C91.4973 20.8361 86.674 17.8419 85.5385 19.2814C83.4131 21.9756 87.0966 26.7794 88.8414 27.1145C87.401 35.9483 78.3932 33.7604 80.07 22.6926C83.0034 17.2686 85.2341 9.20291 84.8361 4.33378C84.695 2.60961 83.4154 0.299964 80.5204 0.414237C74.9528 0.63386 74.3475 13.0983 75.0002 21.9448C74.9675 21.7235 74.6504 23.0588 72.2758 23.6909C72.1963 19.8208 67.3554 18.0463 66.1925 19.2811C64.1199 21.4823 66.6671 25.9985 69.0235 27.1145C67.5831 35.9483 58.5754 33.7604 60.2522 22.6926C63.1856 17.2686 65.4166 9.20291 65.0183 4.33378C64.8775 2.60961 63.5976 0.299964 60.7026 0.414237C55.1353 0.63386 54.6872 13.7249 55.3399 22.5712C53.5061 30.395 47.3563 40.1655 48.1553 20.5931C48.2342 19.2201 48.3203 18.6988 47.6329 18.1848C47.1178 17.7852 45.9465 17.9775 45.3063 17.9933C44.5281 18.0244 44.333 18.4778 44.161 19.1631C43.7604 20.9328 43.6884 22.6483 43.6312 24.989C43.5936 26.084 43.5054 26.5949 43.0819 28.0879C42.659 29.5807 40.2462 32.3091 38.9252 31.8529C37.0926 31.2254 37.6938 26.0736 38.0372 22.534C38.3234 19.7368 37.4071 18.4807 35.0593 18.0239C33.6848 17.7386 32.8497 17.7824 31.4183 17.333C30.0646 16.9082 29.7585 14.3585 26.8713 15.2082C25.2922 15.6733 26.3074 19.0051 25.9278 21.4745C24.0619 33.6217 20.1795 33.9553 18.3784 28.0546C26.4903 8.27087 20.725 0.471517 17.3502 0.471517C13.8352 0.471517 9.81726 2.88248 11.5187 18.3085C10.6914 18.0682 10.437 17.9387 9.53137 17.9387C4.40948 17.9387 0.919922 22.0617 0.919922 27.1479C0.919922 32.234 4.40977 36.3573 9.53166 36.3573C12.5552 36.3573 14.6781 34.9881 16.2859 32.8699C17.3349 34.3658 18.6122 36.3804 20.9482 36.2897C27.9108 36.0197 29.9357 21.7977 30.1747 21.0044C30.9191 21.1187 31.6232 21.3349 32.3106 21.4492C33.4559 21.6204 33.5391 22.0718 33.5131 23.2188C33.2096 32.8914 35.0021 36.2782 39.068 36.2782C41.3334 36.2782 43.3525 34.0618 44.7435 32.4769C45.7824 34.6122 47.4378 36.2128 49.6587 36.2779C55.0402 36.4112 57.1006 27.87 56.9127 28.9941C56.7653 29.876 58.6586 36.2298 64.1988 36.2529C71.0614 36.2816 72.3371 28.7667 72.4891 27.5079C72.5082 27.2575 72.5166 27.2834 72.4891 27.5079L72.4839 27.5842C74.6626 27.1807 75.7867 26.0175 75.7867 26.0175C75.7867 26.0175 77.5361 36.3697 84.0163 36.2531C90.7457 36.1317 92.0147 29.3386 92.1812 28.014C92.2031 27.6996 92.2162 27.7365 92.1812 28.014C92.1803 28.0269 92.1794 28.0399 92.1786 28.0528C94.7666 27.1153 95.4473 26.1744 95.4473 26.1744C95.4473 26.1744 96.8377 36.3208 103.677 36.4094C109.772 36.4889 112.03 30.2741 112.044 27.6729C113.072 27.6838 114.973 27.0655 114.928 27.0304C114.928 27.0304 117.161 35.9017 123.395 36.3573C126.322 36.5712 128.518 34.7172 129.769 33.8715C132.711 36.2436 142.506 39.2735 148.691 28.832C149.564 27.3335 147.687 25.5633 147.357 25.3321ZM9.28451 32.913C6.29619 32.913 4.37999 30.1616 4.37999 27.1948C4.37999 24.2283 6.13894 21.4768 9.12726 21.4768C10.472 21.4768 11.2201 21.6242 12.2673 22.5312C12.4572 23.2764 12.9955 24.9954 13.2574 25.776C13.6083 26.8206 14.0257 27.7097 14.4466 28.6774C13.8453 31.1595 11.8742 32.913 9.28451 32.913ZM16.5666 22.6184C16.4423 22.4212 16.4683 22.5424 16.3292 22.3562C15.7815 20.8723 14.7258 17.5604 14.6035 13.7986C14.4654 9.54314 15.1776 4.55513 17.2774 4.55513C18.7001 4.55513 20.2125 14.6642 16.5666 22.6184ZM58.6427 18.1845C58.3057 15.6592 58.2881 4.40171 61.0021 4.71172C62.5006 5.31618 60.0519 15.939 58.6427 18.1845ZM78.4605 18.1845C78.1235 15.6592 78.1059 4.40171 80.8199 4.71172C82.3184 5.31618 79.8697 15.939 78.4605 18.1845ZM98.1211 18.3413C97.7838 15.8158 97.7664 4.5583 100.48 4.8683C101.979 5.47277 99.53 16.0959 98.1211 18.3413ZM119.826 4.05285C122.308 3.79667 122.205 14.5867 117.225 21.3988C116.582 18.9366 115.598 4.89853 119.826 4.05285ZM130.256 27.2708C129.459 23.262 131.518 20.6291 133.641 20.3404C134.383 20.2224 135.458 20.7011 135.673 21.596C136.025 23.2824 135.622 25.7841 130.87 28.9581C130.877 28.9851 130.433 28.1636 130.256 27.2708Z" fill="black"/>
</g>
</g>
</g>
<defs>
<clipPath id="clip0_337_1375">
<rect width="148" height="36" fill="white" transform="translate(0.919922 0.410156)"/>
</clipPath>
<clipPath id="clip1_337_1375">
<rect width="148" height="36" fill="white" transform="translate(0.919922 0.410156)"/>
</clipPath>
<clipPath id="clip2_337_1375">
<rect width="148" height="36" fill="white" transform="translate(0.919922 0.410156)"/>
</clipPath>
</defs>
</svg>
