              <svg width="16" height="16" viewBox="0 0 16 16" fill="none" xmlns="http://www.w3.org/2000/svg">
                <path
                  d="M5.16688 0.739766C4.77636 0.739766 4.44342 0.877449 4.16805 1.15282C3.89268 1.42818 3.755 1.76113 3.755 2.15165V5.90665C3.755 6.10691 3.83511 6.2471 3.99532 6.32721C4.15553 6.40731 4.31324 6.40731 4.46845 6.32721C4.62366 6.2471 4.70126 6.10691 4.70126 5.90665V2.15165C4.70126 2.02147 4.74632 1.90882 4.83644 1.8137C4.92656 1.71857 5.03671 1.67101 5.16688 1.67101H13.6081C13.7383 1.67101 13.8509 1.71857 13.9461 1.8137C14.0412 1.90882 14.0888 2.02147 14.0888 2.15165V14.3479C14.0888 14.4781 14.0412 14.5907 13.9461 14.6858C13.8509 14.781 13.7383 14.8285 13.6081 14.8285H5.16688C5.03671 14.8285 4.92656 14.781 4.83644 14.6858C4.74632 14.5907 4.70126 14.4781 4.70126 14.3479V10.5929C4.70126 10.4026 4.62115 10.2675 4.46094 10.1873C4.30073 10.1072 4.14302 10.1047 3.98781 10.1798C3.8326 10.2549 3.755 10.3926 3.755 10.5929V14.3479C3.755 14.7384 3.89268 15.0713 4.16805 15.3467C4.44342 15.6221 4.77636 15.7598 5.16688 15.7598H13.6081C13.9986 15.7598 14.3316 15.6221 14.6069 15.3467C14.8823 15.0713 15.02 14.7384 15.02 14.3479V2.15165C15.02 1.76113 14.8823 1.42818 14.6069 1.15282C14.3316 0.877449 13.9986 0.739766 13.6081 0.739766H5.16688ZM7.17956 6.23709L8.72662 7.78415H0.46562C0.275367 7.78415 0.140187 7.86175 0.06008 8.01696C-0.0200267 8.17216 -0.0200267 8.32737 0.06008 8.48258C0.140187 8.63778 0.275367 8.71539 0.46562 8.71539H8.72662L7.17956 10.2624C7.03937 10.4026 6.99682 10.5553 7.05189 10.7206C7.10696 10.8858 7.21711 10.9959 7.38233 11.051C7.54755 11.1061 7.70025 11.0635 7.84044 10.9233L10.1986 8.58021C10.2887 8.49009 10.3338 8.37994 10.3338 8.24977C10.3338 8.11959 10.2887 8.00945 10.1986 7.91933L7.84044 5.57621C7.69024 5.43602 7.53503 5.39346 7.37482 5.44854C7.21461 5.50361 7.10947 5.61376 7.0594 5.77898C7.00933 5.9442 7.04939 6.0969 7.17956 6.23709Z"
                  fill="#34A853"
                />
              </svg>