<svg width="38" height="28" viewBox="0 0 38 28" fill="none" xmlns="http://www.w3.org/2000/svg">
<path d="M37.1283 13.5672C35.7012 9.69514 33.2237 6.34657 30.002 3.93536C26.7803 1.52415 22.9556 0.156001 19.0007 0C15.0458 0.156001 11.2211 1.52415 7.99938 3.93536C4.77768 6.34657 2.30017 9.69514 0.873066 13.5672C0.776686 13.8468 0.776686 14.153 0.873066 14.4327C2.30017 18.3047 4.77768 21.6533 7.99938 24.0645C11.2211 26.4757 15.0458 27.8438 19.0007 27.9998C22.9556 27.8438 26.7803 26.4757 30.002 24.0645C33.2237 21.6533 35.7012 18.3047 37.1283 14.4327C37.2247 14.153 37.2247 13.8468 37.1283 13.5672ZM19.0007 25.4544C12.5699 25.4544 5.77504 20.4526 3.31192 13.9999C5.77504 7.54723 12.5699 2.54544 19.0007 2.54544C25.4315 2.54544 32.2263 7.54723 34.6895 13.9999C32.2263 20.4526 25.4315 25.4544 19.0007 25.4544Z" fill="#34A853"/>
<path d="M18.9999 7C17.6155 7 16.2621 7.41054 15.111 8.17971C13.9598 8.94887 13.0626 10.0421 12.5328 11.3212C12.003 12.6003 11.8644 14.0077 12.1345 15.3656C12.4046 16.7234 13.0712 17.9707 14.0502 18.9497C15.0292 19.9286 16.2764 20.5953 17.6343 20.8654C18.9922 21.1355 20.3996 20.9969 21.6787 20.4671C22.9578 19.9373 24.051 19.0401 24.8202 17.8889C25.5893 16.7378 25.9999 15.3844 25.9999 14C25.9999 12.1435 25.2624 10.363 23.9496 9.05024C22.6369 7.73749 20.8564 7 18.9999 7ZM18.9999 18.6666C18.077 18.6666 17.1747 18.3929 16.4073 17.8801C15.6399 17.3674 15.0417 16.6385 14.6885 15.7858C14.3353 14.9331 14.2429 13.9948 14.423 13.0895C14.603 12.1843 15.0475 11.3528 15.7001 10.7001C16.3528 10.0475 17.1843 9.60305 18.0895 9.42299C18.9947 9.24292 19.9331 9.33534 20.7858 9.68855C21.6385 10.0418 22.3673 10.6399 22.8801 11.4073C23.3929 12.1747 23.6666 13.077 23.6666 14C23.6666 15.2376 23.1749 16.4246 22.2997 17.2998C21.4246 18.1749 20.2376 18.6666 18.9999 18.6666Z" fill="#34A853"/>
</svg>
