<svg width="31" height="30" viewBox="0 0 31 30" fill="none" xmlns="http://www.w3.org/2000/svg">
<path d="M11.3617 18.6248L15.5 16.0673L19.6383 18.6248L18.5383 13.8274L22.1983 10.628L17.3883 10.1933L15.5 5.69307L13.6117 10.1933L8.80167 10.628L12.4617 13.8274L11.3617 18.6248ZM0.5 29.5V3.24428C0.5 2.46198 0.757222 1.80931 1.27167 1.28626C1.78611 0.76322 2.42611 0.501132 3.19167 0.5H27.8083C28.575 0.5 29.215 0.762087 29.7283 1.28626C30.2417 1.81044 30.4989 2.46311 30.5 3.24428V21.5321C30.5 22.3133 30.2428 22.9659 29.7283 23.4901C29.2139 24.0143 28.5739 24.2758 27.8083 24.2747H5.62833L0.5 29.5ZM4.91667 22.5765H27.8083C28.0639 22.5765 28.2989 22.4678 28.5133 22.2504C28.7278 22.0331 28.8344 21.7936 28.8333 21.5321V3.24258C28.8333 2.98219 28.7267 2.74274 28.5133 2.52424C28.3 2.30574 28.065 2.19706 27.8083 2.19819H3.19167C2.93611 2.19819 2.70111 2.30687 2.48667 2.52424C2.27222 2.74161 2.16556 2.98106 2.16667 3.24258V25.37L4.91667 22.5765Z" fill="#34A853"/>
</svg>
