<svg width="31" height="30" viewBox="0 0 31 30" fill="none" xmlns="http://www.w3.org/2000/svg">
<mask id="mask0_24_17223" style="mask-type:luminance" maskUnits="userSpaceOnUse" x="0" y="0" width="31" height="30">
<path d="M30.5 0H0.5V30H30.5V0Z" fill="white"/>
</mask>
<g mask="url(#mask0_24_17223)">
<path d="M24.7578 8.71582C25.0813 8.71582 25.3437 8.4535 25.3437 8.12988V1.75781C25.3437 0.788555 24.5552 0 23.5859 0H2.25781C1.28855 0 0.5 0.788555 0.5 1.75781V28.2422C0.5 29.2114 1.28855 30 2.25781 30H23.5859C24.5552 30 25.3437 29.2114 25.3437 28.2422V23.9255C25.3437 23.6019 25.0813 23.3395 24.7578 23.3395C24.4342 23.3395 24.1718 23.6019 24.1718 23.9255V28.2422C24.1718 28.5653 23.909 28.8281 23.5859 28.8281H2.25781C1.93472 28.8281 1.67187 28.5653 1.67187 28.2422V1.75781C1.67187 1.43473 1.93472 1.17188 2.25781 1.17188H23.5859C23.909 1.17188 24.1718 1.43473 24.1718 1.75781V8.12988C24.1718 8.4535 24.4342 8.71582 24.7578 8.71582Z" fill="#34A853"/>
<path d="M12.9219 3.16406C9.94947 3.16406 7.53125 5.58229 7.53125 8.55469C7.53125 10.0967 8.18223 11.4894 9.22356 12.4728C9.24307 12.4937 9.26381 12.5134 9.28649 12.5314C10.2457 13.4091 11.5223 13.9453 12.9218 13.9453C14.3213 13.9453 15.5979 13.409 16.5572 12.5314C16.5798 12.5134 16.6006 12.4936 16.6201 12.4728C17.6615 11.4894 18.3125 10.0967 18.3125 8.55469C18.3125 5.58229 15.8943 3.16406 12.9219 3.16406ZM12.9219 12.7734C11.9651 12.7734 11.0821 12.4528 10.3736 11.914C10.8886 11.0008 11.8496 10.4297 12.9219 10.4297C13.9942 10.4297 14.9552 11.0008 15.4702 11.914C14.7616 12.4528 13.8787 12.7734 12.9219 12.7734ZM11.9844 8.32031V7.93945C11.9844 7.42254 12.405 7.00195 12.9219 7.00195C13.4388 7.00195 13.8594 7.42254 13.8594 7.93945V8.32031C13.8594 8.83723 13.4388 9.25781 12.9219 9.25781C12.405 9.25781 11.9844 8.83723 11.9844 8.32031ZM16.3168 11.0556C15.8847 10.4147 15.2858 9.91629 14.5905 9.60855C14.8664 9.25189 15.0313 8.80512 15.0313 8.32031V7.93945C15.0313 6.77631 14.085 5.83008 12.9219 5.83008C11.7587 5.83008 10.8125 6.77631 10.8125 7.93945V8.32031C10.8125 8.80512 10.9773 9.25189 11.2533 9.60855C10.558 9.91629 9.95908 10.4147 9.52695 11.0556C9.00963 10.3553 8.70313 9.49025 8.70313 8.55469C8.70313 6.22846 10.5957 4.33594 12.9219 4.33594C15.2481 4.33594 17.1406 6.22846 17.1406 8.55469C17.1406 9.49025 16.8341 10.3553 16.3168 11.0556Z" fill="#34A853"/>
<path d="M16.0859 25.6641H12.9219C12.5983 25.6641 12.3359 25.9264 12.3359 26.25C12.3359 26.5736 12.5983 26.8359 12.9219 26.8359H16.0859C16.4095 26.8359 16.6719 26.5736 16.6719 26.25C16.6719 25.9264 16.4095 25.6641 16.0859 25.6641Z" fill="#34A853"/>
<path d="M16.0859 21H7.76563C7.44208 21 7.17969 21.2623 7.17969 21.5859C7.17969 21.9096 7.44208 22.1719 7.76563 22.1719H16.0859C16.4095 22.1719 16.6718 21.9096 16.6718 21.5859C16.6718 21.2623 16.4095 21 16.0859 21Z" fill="#34A853"/>
<path d="M5.6765 17.492C5.56758 17.383 5.41641 17.3203 5.26172 17.3203C5.10756 17.3203 4.95639 17.383 4.84746 17.492C4.73848 17.601 4.67578 17.7521 4.67578 17.9062C4.67578 18.0604 4.73842 18.2115 4.84746 18.3205C4.95703 18.4295 5.10756 18.4922 5.26172 18.4922C5.41641 18.4922 5.56699 18.4295 5.6765 18.3205C5.78549 18.2115 5.84824 18.0604 5.84824 17.9062C5.84824 17.7521 5.78555 17.601 5.6765 17.492Z" fill="#34A853"/>
<path d="M5.6765 21.1717C5.56699 21.0627 5.41641 21 5.26172 21C5.10756 21 4.95703 21.0627 4.84746 21.1717C4.73848 21.2807 4.67578 21.4318 4.67578 21.5859C4.67578 21.74 4.73842 21.8912 4.84746 22.0002C4.95639 22.1092 5.10756 22.1719 5.26172 22.1719C5.41641 22.1719 5.56758 22.1092 5.6765 22.0002C5.78549 21.8912 5.84824 21.74 5.84824 21.5859C5.84824 21.4318 5.78555 21.2807 5.6765 21.1717Z" fill="#34A853"/>
<path d="M16.0859 17.3203H7.76563C7.44208 17.3203 7.17969 17.5826 7.17969 17.9062C7.17969 18.2299 7.44208 18.4922 7.76563 18.4922H16.0859C16.4095 18.4922 16.6718 18.2299 16.6718 17.9062C16.6718 17.5826 16.4095 17.3203 16.0859 17.3203Z" fill="#34A853"/>
<path d="M29.2684 7.63544C28.6991 7.30679 28.0359 7.21948 27.4009 7.38958C26.766 7.55974 26.2352 7.96696 25.9067 8.5362L18.5331 21.3075C18.4927 21.3775 18.4672 21.4551 18.4582 21.5355L17.9392 26.1845C17.9134 26.4159 18.027 26.6406 18.2285 26.757C18.3195 26.8095 18.4206 26.8355 18.5214 26.8355C18.644 26.8355 18.7661 26.7971 18.869 26.7214L22.6356 23.9473C22.7007 23.8994 22.7552 23.8385 22.7956 23.7685L30.1691 10.9972C30.8476 9.82204 30.4435 8.31395 29.2684 7.63544ZM19.2524 24.9835L19.5234 22.5559L21.2193 23.535L19.2524 24.9835ZM22.0737 22.6751L19.841 21.386L25.7581 11.1374L27.9908 12.4264L22.0737 22.6751ZM29.1542 10.4112L28.5767 11.4116L26.3439 10.1225L26.9215 9.12214C27.0936 8.82395 27.3716 8.61067 27.7042 8.52155C28.0369 8.43237 28.3842 8.47819 28.6824 8.65034C28.9805 8.82249 29.1938 9.10046 29.2829 9.43304C29.3721 9.76561 29.3264 10.113 29.1542 10.4112Z" fill="#34A853"/>
</g>
</svg>
