<svg width="30" height="30" viewBox="0 0 30 30" fill="none" xmlns="http://www.w3.org/2000/svg">
<path fill-rule="evenodd" clip-rule="evenodd" d="M29.08 29.0907H22.3254V27.6087H29.08V29.0907ZM24.2082 26.0839C24.2043 26.0372 24.1965 25.9912 24.1771 25.9476C23.4473 24.1535 23.2959 22.0737 23.7152 19.5894C23.7462 19.4093 23.6647 19.2286 23.5094 19.1309L20.6328 17.3299C20.1015 16.9966 20.2512 16.2014 20.8541 16.0686C21.0405 16.028 21.2268 16.0602 21.386 16.1586L24.8487 18.328C25.1563 18.5191 25.5591 18.2996 25.5591 17.9434V11.0411C26.9644 12.8049 27.3449 16.0629 27.6865 18.9842C27.8573 20.4213 28.0165 21.7791 28.2843 22.9377C28.3387 23.202 28.393 25.2938 28.2765 26.6998H24.2548L24.2082 26.0839ZM7.16622 24.7069H22.8301C22.5001 23.2232 22.4768 21.5819 22.7602 19.7384L20.1398 18.0975C19.3829 17.6245 19.1577 16.6317 19.6391 15.8856C20.1159 15.1412 21.1233 14.9177 21.879 15.391L24.6352 17.117V4.78475H22.5545C21.5374 4.78475 20.7067 3.96738 20.7067 2.96267V0.907779H6.28889C5.77647 0.907779 5.36106 1.31759 5.36106 1.82093V17.117L8.12119 15.3911C8.48611 15.1625 8.92089 15.0882 9.34402 15.182C10.7602 15.4947 11.0715 17.3381 9.86036 18.0975L7.24 19.7384C7.52335 21.5819 7.50007 23.2232 7.16622 24.7069ZM1.72366 26.6998C1.60331 25.2938 1.65766 23.2021 1.71588 22.9377C1.98373 21.7791 2.14287 20.4213 2.30986 18.9842C2.65149 16.0628 3.03577 12.8048 4.44108 11.0411V17.9435C4.44108 18.298 4.84286 18.5199 5.14763 18.3281L8.61425 16.1587C9.12377 15.8377 9.8131 16.2746 9.67401 16.8952C9.63515 17.0772 9.52258 17.2311 9.3673 17.33L6.49074 19.131C6.33546 19.2287 6.25396 19.4095 6.28111 19.5895C6.70424 22.0737 6.55281 24.1536 5.82305 25.9477C5.80362 25.9914 5.79198 26.0373 5.78812 26.084L5.74541 26.6999L1.72366 26.6998ZM7.67085 29.0907H0.920113V27.6087H7.67092L7.67085 29.0907ZM21.6267 1.55128L23.983 3.87548H22.5544C22.042 3.87548 21.6266 3.46642 21.6266 2.96274L21.6267 1.55128ZM29.2004 26.7064C29.3129 25.2566 29.2702 23.119 29.181 22.7367C28.278 18.846 28.617 12.2156 25.5591 9.74487V4.33008C25.5591 4.20984 25.5086 4.09415 25.4232 4.00871L21.4946 0.134043C21.4053 0.0459497 21.2888 0 21.1685 0H6.28889C5.27178 0 4.44108 0.815811 4.44108 1.82093V9.74494C1.38596 12.2132 1.71471 18.8488 0.819119 22.7367C0.729835 23.119 0.687123 25.2566 0.799691 26.7064C0.349417 26.7584 0 27.1373 0 27.5961V29.1034C0 29.5975 0.40763 30 0.908402 30H7.68635C8.18712 30 8.59475 29.5975 8.59475 29.1034V27.5961C8.59475 27.1016 8.18712 26.6998 7.68635 26.6998H6.66924L6.70417 26.2203C6.78181 26.0223 6.85166 25.8204 6.92159 25.6163H23.0785C23.1445 25.8204 23.2183 26.0223 23.2958 26.2203L23.3308 26.6998H22.3136C21.8129 26.6998 21.4052 27.1016 21.4052 27.5961V29.1034C21.4052 29.5975 21.8129 30 22.3136 30H29.0916C29.5924 30 30 29.5975 30 29.1034V27.5961C30.0001 27.1373 29.6507 26.7584 29.2004 26.7064ZM18.1266 12.0242L18.8952 12.8664C19.0653 13.0552 19.3545 13.0679 19.5435 12.9024L21.4573 11.2175C21.6475 11.0501 21.6669 10.7629 21.4961 10.5756C21.3253 10.3883 21.0342 10.3714 20.8439 10.5388L19.2717 11.9223L18.8136 11.4171C18.6429 11.2302 18.3517 11.2145 18.1615 11.3822C17.9752 11.5504 17.9558 11.8377 18.1266 12.0242ZM20.1049 20.7725C20.1049 20.5216 19.8991 20.3178 19.6429 20.3178H10.3533C10.101 20.3178 9.89528 20.5216 9.89528 20.7725C9.89528 21.0234 10.1011 21.2268 10.3533 21.2268H19.6429C19.8991 21.2268 20.1049 21.0234 20.1049 20.7725ZM18.1266 6.70952C17.9558 6.52218 17.9752 6.23493 18.1615 6.06683C18.3517 5.89982 18.6429 5.91478 18.8137 6.10204L19.2718 6.60762L20.8439 5.22376C21.0342 5.05675 21.3254 5.07286 21.4961 5.26013C21.667 5.44739 21.6476 5.73546 21.4574 5.90207L19.5436 7.58773C19.3544 7.75209 19.0655 7.74033 18.8953 7.5517L18.1266 6.70952ZM14.7167 13.6085H8.83153V10.6339C8.83153 9.0332 10.1514 7.73057 11.7741 7.73057C13.3968 7.73057 14.7167 9.0332 14.7167 10.6339V13.6085ZM10.2912 5.35736C10.2912 4.54991 10.955 3.89308 11.7742 3.89308C12.5933 3.89308 13.257 4.54997 13.257 5.35736C13.257 6.1644 12.5932 6.82088 11.7742 6.82163C10.955 6.82088 10.2912 6.1644 10.2912 5.35736ZM15.6367 14.0631C15.6367 14.3144 15.431 14.5178 15.1786 14.5178H8.36962C8.11727 14.5178 7.91156 14.3144 7.91156 14.0631V10.6339C7.91156 9.08343 8.85096 7.74783 10.2019 7.15184C9.69336 6.71675 9.3673 6.07366 9.3673 5.35736C9.3673 4.04895 10.4465 2.98374 11.7742 2.98374C13.1018 2.98374 14.181 4.04895 14.181 5.35736C14.181 6.07359 13.855 6.71668 13.3464 7.15259C14.6934 7.74783 15.6368 9.08343 15.6368 10.6339L15.6367 14.0631Z" fill="#34A853"/>
</svg>
